<svg xmlns="http://www.w3.org/2000/svg" viewBox="0 0 781.85 331.84"><defs><style>.cls-1{fill:#ec6996;}</style></defs><title>Element 22</title><g id="Ebene_2" data-name="Ebene 2"><g id="Ebene_1-2" data-name="Ebene 1"><path class="cls-1" d="M39.85,25.85A1.63,1.63,0,0,0,39.52,27a1.62,1.62,0,0,0,.41,1.08l3.13,3.86a4.63,4.63,0,0,1,.89,2.55V45a8.87,8.87,0,0,1-.71,3.51,9.85,9.85,0,0,1-1.86,2.89,8.2,8.2,0,0,1-2.76,1.93,8.43,8.43,0,0,1-3.39.69H1.56Q.15,54,.15,52.55V1.47A1.27,1.27,0,0,1,1.56,0H35.23a8.06,8.06,0,0,1,3.39.73,9,9,0,0,1,2.76,1.93,9.38,9.38,0,0,1,1.86,2.86A8.88,8.88,0,0,1,43.95,9v10a4.63,4.63,0,0,1-.89,2.55ZM32,11.73H12v9.65H32Zm0,19.91H12V42.21H32Z"/><path class="cls-1" d="M100.19,52.79a.84.84,0,0,1,.07.89.9.9,0,0,1-.82.35H87.6a2.35,2.35,0,0,1-1.19-.35,2.31,2.31,0,0,1-.89-.89l-7.9-14.66a.53.53,0,0,0-.52-.31H68.23c-.25,0-.37.13-.37.39V52.55A1.27,1.27,0,0,1,66.45,54H56.17q-1.42,0-1.42-1.47V1.47Q54.75,0,56.17,0H89.84a8.06,8.06,0,0,1,3.39.73A9,9,0,0,1,96,2.66a9.38,9.38,0,0,1,1.86,2.86A8.86,8.86,0,0,1,98.55,9v20.3a8.89,8.89,0,0,1-1.68,5.29,8.32,8.32,0,0,1-4.28,3.2l-.22.08q-.52.16-.22.46l.07.15ZM85.37,12.58h-18V25.7h18Z"/><path class="cls-1" d="M124.62,52.55q0,1.47-1.42,1.47H112.93q-1.42,0-1.42-1.47V1.47A1.27,1.27,0,0,1,112.93,0h10.28q1.42,0,1.42,1.47Z"/><path class="cls-1" d="M174.79.73a9,9,0,0,1,2.76,1.93,9.38,9.38,0,0,1,1.86,2.86A8.88,8.88,0,0,1,180.12,9V52.55a1.44,1.44,0,0,1-.41,1,1.34,1.34,0,0,1-1,.42H168.35a1.23,1.23,0,0,1-1-.42,1.52,1.52,0,0,1-.37-1v-38a1.32,1.32,0,0,0-.41-1,1.42,1.42,0,0,0-1-.39H150.84a1.41,1.41,0,0,0-1,.39,1.32,1.32,0,0,0-.41,1v38Q149.43,54,148,54H137.73q-1.42,0-1.42-1.47V1.47A1.27,1.27,0,0,1,137.73,0H171.4A8.06,8.06,0,0,1,174.79.73Z"/><path class="cls-1" d="M235.13,25a1.45,1.45,0,0,1,.41,1V45a8.86,8.86,0,0,1-.71,3.51A9.85,9.85,0,0,1,233,51.4a8.19,8.19,0,0,1-2.76,1.93,8.43,8.43,0,0,1-3.39.69H200.45a8.43,8.43,0,0,1-3.39-.69,8.58,8.58,0,0,1-2.79-1.93,8.93,8.93,0,0,1-1.86-2.89,9.29,9.29,0,0,1-.67-3.51V9a9.3,9.3,0,0,1,.67-3.51,8.52,8.52,0,0,1,1.86-2.86A9.48,9.48,0,0,1,197.06.73,8.05,8.05,0,0,1,200.45,0h30.77a1.35,1.35,0,0,1,1,.42,1.45,1.45,0,0,1,.41,1V11.65a1.44,1.44,0,0,1-.41,1,1.34,1.34,0,0,1-1,.42h-25a1.41,1.41,0,0,0-1,.39,1.31,1.31,0,0,0-.41,1v25a1.31,1.31,0,0,0,.41,1,1.41,1.41,0,0,0,1,.39H221a1.28,1.28,0,0,0,1-.39,1.38,1.38,0,0,0,.37-1V26a1.44,1.44,0,0,1,.41-1,1.34,1.34,0,0,1,1-.42h10.35A1.35,1.35,0,0,1,235.13,25Z"/><path class="cls-1" d="M259.67,13v8.41c0,.21.12.31.37.31h21.23a1.35,1.35,0,0,1,1,.42,1.45,1.45,0,0,1,.41,1v7.72a1.27,1.27,0,0,1-1.42,1.47H260c-.25,0-.37.13-.37.39v8.33c0,.26.12.39.37.39h25a1.35,1.35,0,0,1,1,.42,1.45,1.45,0,0,1,.41,1v9.65a1.44,1.44,0,0,1-.41,1,1.34,1.34,0,0,1-1,.42H255.28a8.43,8.43,0,0,1-3.39-.69,8.57,8.57,0,0,1-2.79-1.93,8.93,8.93,0,0,1-1.86-2.89,9.27,9.27,0,0,1-.67-3.51V9a9.28,9.28,0,0,1,.67-3.51,8.52,8.52,0,0,1,1.86-2.86A9.47,9.47,0,0,1,251.89.73,8.06,8.06,0,0,1,255.28,0H285a1.35,1.35,0,0,1,1,.42,1.45,1.45,0,0,1,.41,1v9.72a1.32,1.32,0,0,1-.41,1,1.41,1.41,0,0,1-1,.39H260C259.8,12.58,259.67,12.71,259.67,13Z"/><path class="cls-1" d="M358.67,0a8.06,8.06,0,0,1,3.39.73,9,9,0,0,1,2.76,1.93,9.38,9.38,0,0,1,1.86,2.86A8.88,8.88,0,0,1,367.39,9V45a8.87,8.87,0,0,1-.71,3.51,9.85,9.85,0,0,1-1.86,2.89,8.2,8.2,0,0,1-2.76,1.93,8.43,8.43,0,0,1-3.39.69H325q-1.42,0-1.42-1.47V1.47A1.27,1.27,0,0,1,325,0Zm-22,40.9H354.2V13.12H336.7Z"/><path class="cls-1" d="M392,13v8.41c0,.21.12.31.37.31h21.23a1.35,1.35,0,0,1,1,.42,1.45,1.45,0,0,1,.41,1v7.72a1.27,1.27,0,0,1-1.42,1.47H392.34c-.25,0-.37.13-.37.39v8.33c0,.26.12.39.37.39h25a1.35,1.35,0,0,1,1,.42,1.45,1.45,0,0,1,.41,1v9.65a1.44,1.44,0,0,1-.41,1,1.34,1.34,0,0,1-1,.42H387.58a8.43,8.43,0,0,1-3.39-.69,8.57,8.57,0,0,1-2.79-1.93,8.93,8.93,0,0,1-1.86-2.89,9.27,9.27,0,0,1-.67-3.51V9a9.28,9.28,0,0,1,.67-3.51,8.52,8.52,0,0,1,1.86-2.86A9.47,9.47,0,0,1,384.19.73,8.06,8.06,0,0,1,387.58,0H417.3a1.35,1.35,0,0,1,1,.42,1.45,1.45,0,0,1,.41,1v9.72a1.32,1.32,0,0,1-.41,1,1.41,1.41,0,0,1-1,.39h-25C392.09,12.58,392,12.71,392,13Z"/><path class="cls-1" d="M443.67,52.55q0,1.47-1.42,1.47H432q-1.42,0-1.42-1.47V1.47A1.27,1.27,0,0,1,432,0h10.28q1.42,0,1.42,1.47Z"/><path class="cls-1" d="M493.83.73a9,9,0,0,1,2.76,1.93,9.38,9.38,0,0,1,1.86,2.86A8.88,8.88,0,0,1,499.16,9V52.55a1.44,1.44,0,0,1-.41,1,1.34,1.34,0,0,1-1,.42H487.39a1.23,1.23,0,0,1-1-.42,1.52,1.52,0,0,1-.37-1v-38a1.32,1.32,0,0,0-.41-1,1.42,1.42,0,0,0-1-.39H469.89a1.41,1.41,0,0,0-1,.39,1.32,1.32,0,0,0-.41,1v38q0,1.47-1.42,1.47H456.78q-1.42,0-1.42-1.47V1.47A1.27,1.27,0,0,1,456.78,0h33.67A8.06,8.06,0,0,1,493.83.73Z"/><path class="cls-1" d="M523.82,13v8.41c0,.21.12.31.37.31h21.23a1.35,1.35,0,0,1,1,.42,1.45,1.45,0,0,1,.41,1v7.72a1.27,1.27,0,0,1-1.42,1.47H524.19c-.25,0-.37.13-.37.39v8.33c0,.26.12.39.37.39h25a1.35,1.35,0,0,1,1,.42,1.45,1.45,0,0,1,.41,1v9.65a1.44,1.44,0,0,1-.41,1,1.34,1.34,0,0,1-1,.42H519.42a8.43,8.43,0,0,1-3.39-.69,8.57,8.57,0,0,1-2.79-1.93,8.93,8.93,0,0,1-1.86-2.89,9.27,9.27,0,0,1-.67-3.51V9a9.28,9.28,0,0,1,.67-3.51,8.52,8.52,0,0,1,1.86-2.86A9.47,9.47,0,0,1,516,.73,8.06,8.06,0,0,1,519.42,0h29.72a1.35,1.35,0,0,1,1,.42,1.45,1.45,0,0,1,.41,1v9.72a1.32,1.32,0,0,1-.41,1,1.41,1.41,0,0,1-1,.39h-25C523.94,12.58,523.82,12.71,523.82,13Z"/><path class="cls-1" d="M13.26,145.16q0,1.47-1.42,1.47H1.56q-1.42,0-1.42-1.47V94.07a1.27,1.27,0,0,1,1.42-1.47H11.84q1.42,0,1.42,1.47Z"/><path class="cls-1" d="M60,92.61a8.06,8.06,0,0,1,3.39.73,9,9,0,0,1,2.76,1.93A9.38,9.38,0,0,1,68,98.13a8.88,8.88,0,0,1,.71,3.51v36a8.87,8.87,0,0,1-.71,3.51A9.85,9.85,0,0,1,66.18,144a8.2,8.2,0,0,1-2.76,1.93,8.43,8.43,0,0,1-3.39.69H26.37q-1.42,0-1.42-1.47V94.07a1.27,1.27,0,0,1,1.42-1.47Zm-22,40.9H55.57V105.73H38.06Z"/><path class="cls-1" d="M93.34,105.57V114c0,.21.12.31.37.31h21.23a1.35,1.35,0,0,1,1,.42,1.45,1.45,0,0,1,.41,1v7.72a1.27,1.27,0,0,1-1.42,1.47H93.71c-.25,0-.37.13-.37.39v8.33c0,.26.12.39.37.39h25a1.35,1.35,0,0,1,1,.42,1.45,1.45,0,0,1,.41,1v9.65a1.44,1.44,0,0,1-.41,1,1.34,1.34,0,0,1-1,.42H88.94a8.43,8.43,0,0,1-3.39-.69A8.57,8.57,0,0,1,82.76,144a8.93,8.93,0,0,1-1.86-2.89,9.27,9.27,0,0,1-.67-3.51v-36a9.28,9.28,0,0,1,.67-3.51,8.52,8.52,0,0,1,1.86-2.86,9.47,9.47,0,0,1,2.79-1.93,8.06,8.06,0,0,1,3.39-.73h29.72a1.35,1.35,0,0,1,1,.42,1.45,1.45,0,0,1,.41,1v9.72a1.32,1.32,0,0,1-.41,1,1.41,1.41,0,0,1-1,.39h-25C93.46,105.19,93.34,105.32,93.34,105.57Z"/><path class="cls-1" d="M144.81,105.57V114c0,.21.12.31.37.31h21.23a1.35,1.35,0,0,1,1,.42,1.45,1.45,0,0,1,.41,1v7.72a1.27,1.27,0,0,1-1.42,1.47H145.18c-.25,0-.37.13-.37.39v8.33c0,.26.12.39.37.39h25a1.35,1.35,0,0,1,1,.42,1.45,1.45,0,0,1,.41,1v9.65a1.44,1.44,0,0,1-.41,1,1.34,1.34,0,0,1-1,.42H140.41a8.43,8.43,0,0,1-3.39-.69,8.57,8.57,0,0,1-2.79-1.93,8.93,8.93,0,0,1-1.86-2.89,9.27,9.27,0,0,1-.67-3.51v-36a9.28,9.28,0,0,1,.67-3.51,8.52,8.52,0,0,1,1.86-2.86A9.47,9.47,0,0,1,137,93.34a8.06,8.06,0,0,1,3.39-.73h29.72a1.35,1.35,0,0,1,1,.42,1.45,1.45,0,0,1,.41,1v9.72a1.32,1.32,0,0,1-.41,1,1.41,1.41,0,0,1-1,.39h-25C144.93,105.19,144.81,105.32,144.81,105.57Z"/><path class="cls-1" d="M248.43,118.46a1.63,1.63,0,0,0-.33,1.16,1.62,1.62,0,0,0,.41,1.08l3.13,3.86a4.63,4.63,0,0,1,.89,2.55v10.5a8.87,8.87,0,0,1-.71,3.51A9.85,9.85,0,0,1,250,144a8.2,8.2,0,0,1-2.76,1.93,8.43,8.43,0,0,1-3.39.69H210.14q-1.42,0-1.42-1.47V94.07a1.27,1.27,0,0,1,1.42-1.47h33.67a8.06,8.06,0,0,1,3.39.73A9,9,0,0,1,250,95.27a9.38,9.38,0,0,1,1.86,2.86,8.88,8.88,0,0,1,.71,3.51v10a4.63,4.63,0,0,1-.89,2.55Zm-7.82-14.12h-20V114h20Zm0,19.91h-20v10.57h20Z"/><path class="cls-1" d="M277.18,145.16q0,1.47-1.42,1.47H265.48q-1.42,0-1.42-1.47V94.07a1.27,1.27,0,0,1,1.42-1.47h10.28q1.42,0,1.42,1.47Z"/><path class="cls-1" d="M323.18,114.83a8.21,8.21,0,0,1,2.76,1.93,10,10,0,0,1,1.86,2.86,8.59,8.59,0,0,1,.71,3.47V137.6a8.86,8.86,0,0,1-.71,3.51,9.85,9.85,0,0,1-1.86,2.89,8.19,8.19,0,0,1-2.76,1.93,8.43,8.43,0,0,1-3.39.69H290.07q-1.42,0-1.42-1.47v-9.34a1.44,1.44,0,0,1,.41-1,1.34,1.34,0,0,1,1-.42h25.33a1.41,1.41,0,0,0,1-.39,1.32,1.32,0,0,0,.41-1v-6.41a1.45,1.45,0,0,0-.41-1,1.35,1.35,0,0,0-1-.42h-18a8.42,8.42,0,0,1-3.39-.69,8.57,8.57,0,0,1-2.79-1.93,9,9,0,0,1-2.53-6.33V101.64a9.28,9.28,0,0,1,.67-3.51,8.52,8.52,0,0,1,1.86-2.86A9.47,9.47,0,0,1,294,93.34a8.06,8.06,0,0,1,3.39-.73h28.08a1.27,1.27,0,0,1,1.42,1.47v9.49a1.32,1.32,0,0,1-.41,1,1.41,1.41,0,0,1-1,.39H301.69a1.23,1.23,0,0,0-1,.42,1.52,1.52,0,0,0-.37,1v6.25a1.52,1.52,0,0,0,.37,1,1.22,1.22,0,0,0,1,.42h18.1A8.43,8.43,0,0,1,323.18,114.83Z"/><path class="cls-1" d="M404.86,103.8a3.34,3.34,0,0,1-.3,1.31,5,5,0,0,1-.67,1.16l-24.21,28.25h23.76a1.35,1.35,0,0,1,1,.42,1.45,1.45,0,0,1,.41,1v9.18a1.45,1.45,0,0,1-.41,1,1.35,1.35,0,0,1-1,.42h-37q-1.42,0-1.42-1.47v-9.65a4.63,4.63,0,0,1,.89-2.55l24.73-28.25H366.87a1.34,1.34,0,0,1-1-.42,1.44,1.44,0,0,1-.41-1V94.07a1.44,1.44,0,0,1,.41-1,1.34,1.34,0,0,1,1-.42h36.58a1.35,1.35,0,0,1,1,.42,1.45,1.45,0,0,1,.41,1Z"/><path class="cls-1" d="M460,93a1.45,1.45,0,0,1,.41,1V137.6a8.87,8.87,0,0,1-.71,3.51,9.87,9.87,0,0,1-1.86,2.89,8.2,8.2,0,0,1-2.76,1.93,8.43,8.43,0,0,1-3.39.69H425.34a8.43,8.43,0,0,1-3.39-.69,8.56,8.56,0,0,1-2.79-1.93,8.89,8.89,0,0,1-1.86-2.89,9.27,9.27,0,0,1-.67-3.51V94.07q0-1.47,1.42-1.47h10.28a1.27,1.27,0,0,1,1.42,1.47v38a1.31,1.31,0,0,0,.41,1,1.4,1.4,0,0,0,1,.39H445.9a1.28,1.28,0,0,0,1-.39,1.38,1.38,0,0,0,.37-1v-38a1.44,1.44,0,0,1,.41-1,1.34,1.34,0,0,1,1-.42H459A1.35,1.35,0,0,1,460,93Z"/><path class="cls-1" d="M521.92,93.34a9,9,0,0,1,2.76,1.93,9.38,9.38,0,0,1,1.86,2.86,8.86,8.86,0,0,1,.71,3.51v43.53a1.44,1.44,0,0,1-.41,1,1.34,1.34,0,0,1-1,.42H515.47a1.23,1.23,0,0,1-1-.42,1.52,1.52,0,0,1-.37-1V105.73h-8.34v39.44a1.52,1.52,0,0,1-.37,1,1.23,1.23,0,0,1-1,.42h-9.39a1.34,1.34,0,0,1-1-.42,1.44,1.44,0,0,1-.41-1V105.73H485.3v39.44q0,1.47-1.42,1.47H473.61q-1.42,0-1.42-1.47V94.07a1.27,1.27,0,0,1,1.42-1.47h44.92A8.06,8.06,0,0,1,521.92,93.34Z"/><path class="cls-1" d="M43.39,210.18a1.45,1.45,0,0,1,.41,1v19a8.86,8.86,0,0,1-.71,3.51,9.85,9.85,0,0,1-1.86,2.89,8.19,8.19,0,0,1-2.76,1.93,8.43,8.43,0,0,1-3.39.69H8.71a8.43,8.43,0,0,1-3.39-.69,8.58,8.58,0,0,1-2.79-1.93,8.93,8.93,0,0,1-1.86-2.89A9.29,9.29,0,0,1,0,230.21v-36a9.3,9.3,0,0,1,.67-3.51,8.52,8.52,0,0,1,1.86-2.86,9.48,9.48,0,0,1,2.79-1.93,8.05,8.05,0,0,1,3.39-.73H39.48a1.35,1.35,0,0,1,1,.42,1.45,1.45,0,0,1,.41,1v10.19a1.44,1.44,0,0,1-.41,1,1.34,1.34,0,0,1-1,.42h-25a1.41,1.41,0,0,0-1,.39,1.31,1.31,0,0,0-.41,1v25a1.31,1.31,0,0,0,.41,1,1.41,1.41,0,0,0,1,.39H29.27a1.28,1.28,0,0,0,1-.39,1.38,1.38,0,0,0,.37-1V211.22a1.44,1.44,0,0,1,.41-1,1.34,1.34,0,0,1,1-.42H42.39A1.35,1.35,0,0,1,43.39,210.18Z"/><path class="cls-1" d="M67.94,198.18v8.41c0,.21.12.31.37.31H89.54a1.35,1.35,0,0,1,1,.42,1.45,1.45,0,0,1,.41,1v7.72a1.27,1.27,0,0,1-1.42,1.47H68.31c-.25,0-.37.13-.37.39v8.33c0,.26.12.39.37.39h25a1.35,1.35,0,0,1,1,.42,1.45,1.45,0,0,1,.41,1v9.65a1.44,1.44,0,0,1-.41,1,1.34,1.34,0,0,1-1,.42H63.54a8.43,8.43,0,0,1-3.39-.69,8.57,8.57,0,0,1-2.79-1.93,8.93,8.93,0,0,1-1.86-2.89,9.27,9.27,0,0,1-.67-3.51v-36a9.28,9.28,0,0,1,.67-3.51,8.52,8.52,0,0,1,1.86-2.86,9.47,9.47,0,0,1,2.79-1.93,8.06,8.06,0,0,1,3.39-.73H93.26a1.35,1.35,0,0,1,1,.42,1.45,1.45,0,0,1,.41,1v9.72a1.32,1.32,0,0,1-.41,1,1.41,1.41,0,0,1-1,.39h-25C68.06,197.79,67.94,197.92,67.94,198.18Z"/><path class="cls-1" d="M151.22,238a.84.84,0,0,1,.07.89.9.9,0,0,1-.82.35H138.63a2.35,2.35,0,0,1-1.19-.35,2.31,2.31,0,0,1-.89-.89l-7.9-14.66a.53.53,0,0,0-.52-.31h-8.86c-.25,0-.37.13-.37.39v14.35a1.27,1.27,0,0,1-1.42,1.47H107.19q-1.42,0-1.42-1.47V186.68q0-1.47,1.42-1.47h33.67a8.06,8.06,0,0,1,3.39.73,9,9,0,0,1,2.76,1.93,9.38,9.38,0,0,1,1.86,2.86,8.86,8.86,0,0,1,.71,3.51v20.3a8.89,8.89,0,0,1-1.68,5.29,8.32,8.32,0,0,1-4.28,3.2l-.22.08q-.52.16-.22.46l.07.15Zm-14.82-40.21h-18v13.12h18Z"/><path class="cls-1" d="M197.55,185.22a8.06,8.06,0,0,1,3.39.73,9,9,0,0,1,2.76,1.93,9.39,9.39,0,0,1,1.86,2.86,8.88,8.88,0,0,1,.71,3.51v43.53a1.44,1.44,0,0,1-.41,1,1.34,1.34,0,0,1-1,.42H194.5a1.34,1.34,0,0,1-1-.42,1.44,1.44,0,0,1-.41-1V224a1.53,1.53,0,0,0-.37-1,1.23,1.23,0,0,0-1-.42H177a1.34,1.34,0,0,0-1,.42,1.44,1.44,0,0,0-.41,1v13.81a1.27,1.27,0,0,1-1.42,1.47H163.88q-1.42,0-1.42-1.47V194.24a9.28,9.28,0,0,1,.67-3.51,8.5,8.5,0,0,1,1.86-2.86,9.46,9.46,0,0,1,2.79-1.93,8.05,8.05,0,0,1,3.39-.73Zm-4.47,25.7V197.33H175.58v13.58Z"/><path class="cls-1" d="M281.84,185.95a9,9,0,0,1,2.76,1.93,9.38,9.38,0,0,1,1.86,2.86,8.88,8.88,0,0,1,.71,3.51v43.53a1.44,1.44,0,0,1-.41,1,1.34,1.34,0,0,1-1,.42H275.39a1.23,1.23,0,0,1-1-.42,1.52,1.52,0,0,1-.37-1v-38a1.32,1.32,0,0,0-.41-1,1.42,1.42,0,0,0-1-.39H257.89a1.41,1.41,0,0,0-1,.39,1.32,1.32,0,0,0-.41,1v38q0,1.47-1.42,1.47H244.78q-1.42,0-1.42-1.47V186.68a1.27,1.27,0,0,1,1.42-1.47h33.67A8.06,8.06,0,0,1,281.84,185.95Z"/><path class="cls-1" d="M311.82,198.18v8.41c0,.21.12.31.37.31h21.23a1.35,1.35,0,0,1,1,.42,1.45,1.45,0,0,1,.41,1v7.72a1.27,1.27,0,0,1-1.42,1.47H312.19c-.25,0-.37.13-.37.39v8.33c0,.26.12.39.37.39h25a1.35,1.35,0,0,1,1,.42,1.45,1.45,0,0,1,.41,1v9.65a1.44,1.44,0,0,1-.41,1,1.34,1.34,0,0,1-1,.42H307.42a8.43,8.43,0,0,1-3.39-.69,8.57,8.57,0,0,1-2.79-1.93,8.93,8.93,0,0,1-1.86-2.89,9.27,9.27,0,0,1-.67-3.51v-36a9.28,9.28,0,0,1,.67-3.51,8.52,8.52,0,0,1,1.86-2.86,9.47,9.47,0,0,1,2.79-1.93,8.06,8.06,0,0,1,3.39-.73h29.72a1.35,1.35,0,0,1,1,.42,1.45,1.45,0,0,1,.41,1v9.72a1.32,1.32,0,0,1-.41,1,1.41,1.41,0,0,1-1,.39h-25C311.94,197.79,311.82,197.92,311.82,198.18Z"/><path class="cls-1" d="M399.57,238.89a.9.9,0,0,1-.82.35H387.58a2.35,2.35,0,0,1-1.19-.35,2.31,2.31,0,0,1-.89-.89l-10.88-16.13-11,16.13a2.53,2.53,0,0,1-2.09,1.23H350.4a.9.9,0,0,1-.82-.35c-.15-.23-.1-.53.15-.89l16-25.39a2.71,2.71,0,0,0,0-2.47l-15-23.69c-.25-.36-.3-.66-.15-.89a.9.9,0,0,1,.82-.35h11.17a2.54,2.54,0,0,1,2.09,1.23l10,14.51,9.91-14.51a2.54,2.54,0,0,1,2.09-1.23h11.17a.9.9,0,0,1,.82.35c.15.23.1.53-.15.89l-15,23.69a2.71,2.71,0,0,0,0,2.47l16,25.39Q399.79,238.54,399.57,238.89Z"/><path class="cls-1" d="M447.54,196.87a1.44,1.44,0,0,1-.41,1,1.34,1.34,0,0,1-1,.42H435.55a1.41,1.41,0,0,0-1,.39,1.32,1.32,0,0,0-.41,1v38a1.52,1.52,0,0,1-.37,1,1.23,1.23,0,0,1-1,.42H422.44a1.34,1.34,0,0,1-1-.42,1.44,1.44,0,0,1-.41-1v-38a1.39,1.39,0,0,0-.37-1,1.29,1.29,0,0,0-1-.39H409.1a1.34,1.34,0,0,1-1-.42,1.44,1.44,0,0,1-.41-1V186.68q0-1.47,1.42-1.47h37a1.35,1.35,0,0,1,1,.42,1.45,1.45,0,0,1,.41,1Z"/><path class="cls-1" d="M518.68,196.87a1.44,1.44,0,0,1-.41,1,1.34,1.34,0,0,1-1,.42H506.69a1.41,1.41,0,0,0-1,.39,1.32,1.32,0,0,0-.41,1v38a1.52,1.52,0,0,1-.37,1,1.23,1.23,0,0,1-1,.42H493.57a1.34,1.34,0,0,1-1-.42,1.44,1.44,0,0,1-.41-1v-38a1.39,1.39,0,0,0-.37-1,1.29,1.29,0,0,0-1-.39H480.24a1.34,1.34,0,0,1-1-.42,1.44,1.44,0,0,1-.41-1V186.68q0-1.47,1.42-1.47h37a1.35,1.35,0,0,1,1,.42,1.45,1.45,0,0,1,.41,1Z"/><path class="cls-1" d="M561.44,185.22a8.06,8.06,0,0,1,3.39.73,9,9,0,0,1,2.76,1.93,9.38,9.38,0,0,1,1.86,2.86,8.86,8.86,0,0,1,.71,3.51v36a8.86,8.86,0,0,1-.71,3.51,9.85,9.85,0,0,1-1.86,2.89,8.19,8.19,0,0,1-2.76,1.93,8.43,8.43,0,0,1-3.39.69H535.07a8.43,8.43,0,0,1-3.39-.69,8.58,8.58,0,0,1-2.79-1.93,8.93,8.93,0,0,1-1.86-2.89,9.29,9.29,0,0,1-.67-3.51v-36a9.3,9.3,0,0,1,.67-3.51,8.52,8.52,0,0,1,1.86-2.86,9.48,9.48,0,0,1,2.79-1.93,8.05,8.05,0,0,1,3.39-.73ZM557,198.33h-17.5v27.78H557Z"/><path class="cls-1" d="M613,185.22a8.06,8.06,0,0,1,3.39.73,9,9,0,0,1,2.76,1.93,9.38,9.38,0,0,1,1.86,2.86,8.86,8.86,0,0,1,.71,3.51V214.7a8.86,8.86,0,0,1-.71,3.51,9.34,9.34,0,0,1-1.86,2.86,9,9,0,0,1-2.76,1.93,8,8,0,0,1-3.39.73H596.37a1.41,1.41,0,0,0-1,.39,1.32,1.32,0,0,0-.41,1v12.66q0,1.47-1.42,1.47H583.26q-1.42,0-1.42-1.47V186.68a1.27,1.27,0,0,1,1.42-1.47ZM609,211.15V197.49H594.51v13.66Z"/><path class="cls-1" d="M13.26,330.38q0,1.47-1.42,1.47H1.56q-1.42,0-1.42-1.47V279.29a1.27,1.27,0,0,1,1.42-1.47H11.84q1.42,0,1.42,1.47Z"/><path class="cls-1" d="M58.77,277.82a8.06,8.06,0,0,1,3.39.73,9,9,0,0,1,2.76,1.93,9.38,9.38,0,0,1,1.86,2.86,8.88,8.88,0,0,1,.71,3.51v36a8.87,8.87,0,0,1-.71,3.51,9.85,9.85,0,0,1-1.86,2.89,8.2,8.2,0,0,1-2.76,1.93,8.43,8.43,0,0,1-3.39.69H25.1q-1.42,0-1.42-1.47V279.29a1.27,1.27,0,0,1,1.42-1.47Zm-22,40.9H54.3V290.94H36.8Z"/><path class="cls-1" d="M90.8,290.79v8.41c0,.21.12.31.37.31h21.23a1.35,1.35,0,0,1,1,.42,1.45,1.45,0,0,1,.41,1v7.72a1.27,1.27,0,0,1-1.42,1.47H91.18c-.25,0-.37.13-.37.39v8.33c0,.26.12.39.37.39h25a1.35,1.35,0,0,1,1,.42,1.45,1.45,0,0,1,.41,1v9.65a1.44,1.44,0,0,1-.41,1,1.34,1.34,0,0,1-1,.42H86.41a8.43,8.43,0,0,1-3.39-.69,8.57,8.57,0,0,1-2.79-1.93,8.93,8.93,0,0,1-1.86-2.89,9.27,9.27,0,0,1-.67-3.51v-36a9.28,9.28,0,0,1,.67-3.51,8.52,8.52,0,0,1,1.86-2.86A9.47,9.47,0,0,1,83,278.56a8.06,8.06,0,0,1,3.39-.73h29.72a1.35,1.35,0,0,1,1,.42,1.45,1.45,0,0,1,.41,1V289a1.32,1.32,0,0,1-.41,1,1.41,1.41,0,0,1-1,.39h-25C90.93,290.4,90.8,290.53,90.8,290.79Z"/><path class="cls-1" d="M141,290.79v8.41c0,.21.12.31.37.31h21.23a1.35,1.35,0,0,1,1,.42,1.45,1.45,0,0,1,.41,1v7.72a1.27,1.27,0,0,1-1.42,1.47H141.38c-.25,0-.37.13-.37.39v8.33c0,.26.12.39.37.39h25a1.35,1.35,0,0,1,1,.42,1.45,1.45,0,0,1,.41,1v9.65a1.44,1.44,0,0,1-.41,1,1.34,1.34,0,0,1-1,.42H136.62a8.43,8.43,0,0,1-3.39-.69,8.57,8.57,0,0,1-2.79-1.93,8.93,8.93,0,0,1-1.86-2.89,9.27,9.27,0,0,1-.67-3.51v-36a9.28,9.28,0,0,1,.67-3.51,8.52,8.52,0,0,1,1.86-2.86,9.47,9.47,0,0,1,2.79-1.93,8.06,8.06,0,0,1,3.39-.73h29.72a1.35,1.35,0,0,1,1,.42,1.45,1.45,0,0,1,.41,1V289a1.32,1.32,0,0,1-.41,1,1.41,1.41,0,0,1-1,.39h-25C141.13,290.4,141,290.53,141,290.79Z"/><path class="cls-1" d="M215.28,290.79v8.41c0,.21.12.31.37.31h21.23a1.35,1.35,0,0,1,1,.42,1.45,1.45,0,0,1,.41,1v7.72a1.27,1.27,0,0,1-1.42,1.47H215.65c-.25,0-.37.13-.37.39v8.33c0,.26.12.39.37.39h25a1.35,1.35,0,0,1,1,.42,1.45,1.45,0,0,1,.41,1v9.65a1.44,1.44,0,0,1-.41,1,1.34,1.34,0,0,1-1,.42H210.88a8.43,8.43,0,0,1-3.39-.69,8.57,8.57,0,0,1-2.79-1.93,8.93,8.93,0,0,1-1.86-2.89,9.27,9.27,0,0,1-.67-3.51v-36a9.28,9.28,0,0,1,.67-3.51,8.52,8.52,0,0,1,1.86-2.86,9.47,9.47,0,0,1,2.79-1.93,8.06,8.06,0,0,1,3.39-.73h29.72a1.35,1.35,0,0,1,1,.42,1.45,1.45,0,0,1,.41,1V289a1.32,1.32,0,0,1-.41,1,1.41,1.41,0,0,1-1,.39h-25C215.4,290.4,215.28,290.53,215.28,290.79Z"/><path class="cls-1" d="M287.68,331.84H254q-1.42,0-1.42-1.47V279.29a1.27,1.27,0,0,1,1.42-1.47h10.28q1.42,0,1.42,1.47v38a1.31,1.31,0,0,0,.41,1,1.4,1.4,0,0,0,1,.39h14.75a1.28,1.28,0,0,0,1-.39,1.38,1.38,0,0,0,.37-1v-38a1.44,1.44,0,0,1,.41-1,1.34,1.34,0,0,1,1-.42H295a1.35,1.35,0,0,1,1,.42,1.45,1.45,0,0,1,.41,1v43.53a8.87,8.87,0,0,1-.71,3.51,9.85,9.85,0,0,1-1.86,2.89,8.2,8.2,0,0,1-2.76,1.93A8.43,8.43,0,0,1,287.68,331.84Z"/><path class="cls-1" d="M319.79,290.79v8.41c0,.21.12.31.37.31h21.23a1.35,1.35,0,0,1,1,.42,1.45,1.45,0,0,1,.41,1v7.72a1.27,1.27,0,0,1-1.42,1.47H320.16c-.25,0-.37.13-.37.39v8.33c0,.26.12.39.37.39h25a1.35,1.35,0,0,1,1,.42,1.45,1.45,0,0,1,.41,1v9.65a1.44,1.44,0,0,1-.41,1,1.34,1.34,0,0,1-1,.42H315.39a8.43,8.43,0,0,1-3.39-.69,8.57,8.57,0,0,1-2.79-1.93,8.93,8.93,0,0,1-1.86-2.89,9.27,9.27,0,0,1-.67-3.51v-36a9.28,9.28,0,0,1,.67-3.51,8.52,8.52,0,0,1,1.86-2.86,9.47,9.47,0,0,1,2.79-1.93,8.06,8.06,0,0,1,3.39-.73h29.72a1.35,1.35,0,0,1,1,.42,1.45,1.45,0,0,1,.41,1V289a1.32,1.32,0,0,1-.41,1,1.41,1.41,0,0,1-1,.39h-25C319.91,290.4,319.79,290.53,319.79,290.79Z"/><path class="cls-1" d="M395.58,278.56a9,9,0,0,1,2.76,1.93,9.38,9.38,0,0,1,1.86,2.86,8.88,8.88,0,0,1,.71,3.51v43.53a1.44,1.44,0,0,1-.41,1,1.34,1.34,0,0,1-1,.42H389.14a1.23,1.23,0,0,1-1-.42,1.52,1.52,0,0,1-.37-1v-38a1.32,1.32,0,0,0-.41-1,1.42,1.42,0,0,0-1-.39H371.63a1.41,1.41,0,0,0-1,.39,1.32,1.32,0,0,0-.41,1v38q0,1.47-1.42,1.47H358.52q-1.42,0-1.42-1.47V279.29a1.27,1.27,0,0,1,1.42-1.47h33.67A8.06,8.06,0,0,1,395.58,278.56Z"/><path class="cls-1" d="M448.28,289.48a1.44,1.44,0,0,1-.41,1,1.34,1.34,0,0,1-1,.42H436.29a1.41,1.41,0,0,0-1,.39,1.32,1.32,0,0,0-.41,1v38a1.52,1.52,0,0,1-.37,1,1.23,1.23,0,0,1-1,.42H423.18a1.34,1.34,0,0,1-1-.42,1.44,1.44,0,0,1-.41-1v-38a1.39,1.39,0,0,0-.37-1,1.29,1.29,0,0,0-1-.39H409.85a1.34,1.34,0,0,1-1-.42,1.44,1.44,0,0,1-.41-1V279.29q0-1.47,1.42-1.47h37a1.35,1.35,0,0,1,1,.42,1.45,1.45,0,0,1,.41,1Z"/><path class="cls-1" d="M534.58,278.25a1.45,1.45,0,0,1,.41,1v43.53a8.87,8.87,0,0,1-.71,3.51,9.87,9.87,0,0,1-1.86,2.89,8.2,8.2,0,0,1-2.76,1.93,8.43,8.43,0,0,1-3.39.69H488.66a8.43,8.43,0,0,1-3.39-.69,8.56,8.56,0,0,1-2.79-1.93,8.89,8.89,0,0,1-1.86-2.89,9.27,9.27,0,0,1-.67-3.51V279.29q0-1.47,1.42-1.47h10.28a1.27,1.27,0,0,1,1.42,1.47v39.44h8.27V279.29a1.44,1.44,0,0,1,.41-1,1.34,1.34,0,0,1,1-.42h9.39a1.35,1.35,0,0,1,1,.42,1.45,1.45,0,0,1,.41,1v39.44h8.34V279.29a1.52,1.52,0,0,1,.37-1,1.23,1.23,0,0,1,1-.42h10.35A1.35,1.35,0,0,1,534.58,278.25Z"/><path class="cls-1" d="M558.38,290.79v8.41c0,.21.12.31.37.31H580a1.35,1.35,0,0,1,1,.42,1.45,1.45,0,0,1,.41,1v7.72a1.27,1.27,0,0,1-1.42,1.47H558.75c-.25,0-.37.13-.37.39v8.33c0,.26.12.39.37.39h25a1.35,1.35,0,0,1,1,.42,1.45,1.45,0,0,1,.41,1v9.65a1.44,1.44,0,0,1-.41,1,1.34,1.34,0,0,1-1,.42H554a8.43,8.43,0,0,1-3.39-.69,8.57,8.57,0,0,1-2.79-1.93,8.93,8.93,0,0,1-1.86-2.89,9.27,9.27,0,0,1-.67-3.51v-36a9.28,9.28,0,0,1,.67-3.51,8.52,8.52,0,0,1,1.86-2.86,9.47,9.47,0,0,1,2.79-1.93,8.06,8.06,0,0,1,3.39-.73h29.72a1.35,1.35,0,0,1,1,.42,1.45,1.45,0,0,1,.41,1V289a1.32,1.32,0,0,1-.41,1,1.41,1.41,0,0,1-1,.39h-25C558.5,290.4,558.38,290.53,558.38,290.79Z"/><path class="cls-1" d="M608.81,330.38q0,1.47-1.42,1.47H597.12q-1.42,0-1.42-1.47V279.29a1.27,1.27,0,0,1,1.42-1.47H607.4q1.42,0,1.42,1.47Z"/><path class="cls-1" d="M656.11,289.48a1.44,1.44,0,0,1-.41,1,1.34,1.34,0,0,1-1,.42H644.12a1.41,1.41,0,0,0-1,.39,1.32,1.32,0,0,0-.41,1v38a1.52,1.52,0,0,1-.37,1,1.23,1.23,0,0,1-1,.42H631a1.34,1.34,0,0,1-1-.42,1.44,1.44,0,0,1-.41-1v-38a1.39,1.39,0,0,0-.37-1,1.29,1.29,0,0,0-1-.39H617.67a1.34,1.34,0,0,1-1-.42,1.44,1.44,0,0,1-.41-1V279.29q0-1.47,1.42-1.47h37a1.35,1.35,0,0,1,1,.42,1.45,1.45,0,0,1,.41,1Z"/><path class="cls-1" d="M676.67,290.79v8.41c0,.21.12.31.37.31h21.23a1.35,1.35,0,0,1,1,.42,1.45,1.45,0,0,1,.41,1v7.72a1.27,1.27,0,0,1-1.42,1.47H677c-.25,0-.37.13-.37.39v8.33c0,.26.12.39.37.39h25a1.35,1.35,0,0,1,1,.42,1.45,1.45,0,0,1,.41,1v9.65a1.44,1.44,0,0,1-.41,1,1.34,1.34,0,0,1-1,.42H672.28a8.43,8.43,0,0,1-3.39-.69,8.57,8.57,0,0,1-2.79-1.93,8.93,8.93,0,0,1-1.86-2.89,9.27,9.27,0,0,1-.67-3.51v-36a9.28,9.28,0,0,1,.67-3.51,8.52,8.52,0,0,1,1.86-2.86,9.47,9.47,0,0,1,2.79-1.93,8.06,8.06,0,0,1,3.39-.73H702a1.35,1.35,0,0,1,1,.42,1.45,1.45,0,0,1,.41,1V289a1.32,1.32,0,0,1-.41,1,1.41,1.41,0,0,1-1,.39H677C676.79,290.4,676.67,290.53,676.67,290.79Z"/><path class="cls-1" d="M758.69,330.61a.84.84,0,0,1,.07.89.9.9,0,0,1-.82.35H746.1a2.35,2.35,0,0,1-1.19-.35,2.31,2.31,0,0,1-.89-.89l-7.9-14.66a.53.53,0,0,0-.52-.31h-8.86c-.25,0-.37.13-.37.39v14.35a1.27,1.27,0,0,1-1.42,1.47H714.66q-1.42,0-1.42-1.47V279.29q0-1.47,1.42-1.47h33.67a8.06,8.06,0,0,1,3.39.73,9,9,0,0,1,2.76,1.93,9.38,9.38,0,0,1,1.86,2.86,8.86,8.86,0,0,1,.71,3.51v20.3a8.89,8.89,0,0,1-1.68,5.29,8.32,8.32,0,0,1-4.28,3.2l-.22.08q-.52.16-.22.46l.07.15ZM743.86,290.4h-18v13.12h18Z"/><path class="cls-1" d="M781.85,319.73v10.65q0,1.47-1.42,1.47H770.16q-1.42,0-1.42-1.47V319.73a1.27,1.27,0,0,1,1.42-1.47h10.28A1.27,1.27,0,0,1,781.85,319.73Z"/></g></g></svg>