<svg xmlns="http://www.w3.org/2000/svg" viewBox="0 0 757.87 239.24"><defs><style>.cls-1{fill:#29306f;}</style></defs><title>Element 21</title><g id="Ebene_2" data-name="Ebene 2"><g id="Ebene_1-2" data-name="Ebene 1"><path class="cls-1" d="M38.07,0a8.06,8.06,0,0,1,3.39.73,9,9,0,0,1,2.76,1.93,9.39,9.39,0,0,1,1.86,2.86A8.87,8.87,0,0,1,46.78,9V45a8.86,8.86,0,0,1-.71,3.51,9.86,9.86,0,0,1-1.86,2.89,8.19,8.19,0,0,1-2.76,1.93,8.43,8.43,0,0,1-3.39.69H4.4Q3,54,3,52.55V1.47Q3,0,4.4,0Zm-22,40.9H33.6V13.12H16.09Z"/><path class="cls-1" d="M71.59,52.55A1.27,1.27,0,0,1,70.17,54H59.89q-1.42,0-1.42-1.47V1.47Q58.48,0,59.89,0H70.17a1.27,1.27,0,0,1,1.42,1.47Z"/><path class="cls-1" d="M96.17,13v8.41c0,.21.12.31.37.31h21.23a1.35,1.35,0,0,1,1,.42,1.45,1.45,0,0,1,.41,1v7.72a1.27,1.27,0,0,1-1.42,1.47H96.54c-.25,0-.37.13-.37.39v8.33c0,.26.12.39.37.39h25a1.35,1.35,0,0,1,1,.42,1.45,1.45,0,0,1,.41,1v9.65a1.45,1.45,0,0,1-.41,1,1.34,1.34,0,0,1-1,.42H91.77a8.43,8.43,0,0,1-3.39-.69,8.58,8.58,0,0,1-2.79-1.93,8.92,8.92,0,0,1-1.86-2.89A9.28,9.28,0,0,1,83.06,45V9a9.29,9.29,0,0,1,.67-3.51,8.52,8.52,0,0,1,1.86-2.86A9.48,9.48,0,0,1,88.38.73,8.05,8.05,0,0,1,91.77,0h29.72a1.35,1.35,0,0,1,1,.42,1.45,1.45,0,0,1,.41,1v9.72a1.32,1.32,0,0,1-.41,1,1.41,1.41,0,0,1-1,.39h-25C96.29,12.58,96.17,12.71,96.17,13Z"/><path class="cls-1" d="M194.38,22.23a8.21,8.21,0,0,1,2.76,1.93A10,10,0,0,1,199,27a8.59,8.59,0,0,1,.71,3.47V45A8.86,8.86,0,0,1,199,48.5a9.84,9.84,0,0,1-1.86,2.89,8.19,8.19,0,0,1-2.76,1.93A8.43,8.43,0,0,1,191,54H161.27q-1.42,0-1.42-1.47V43.22a1.44,1.44,0,0,1,.41-1,1.34,1.34,0,0,1,1-.42H186.6a1.41,1.41,0,0,0,1-.39,1.32,1.32,0,0,0,.41-1V34a1.45,1.45,0,0,0-.41-1,1.35,1.35,0,0,0-1-.42h-18a8.42,8.42,0,0,1-3.39-.69,8.57,8.57,0,0,1-2.79-1.93,9,9,0,0,1-2.53-6.33V9a9.29,9.29,0,0,1,.67-3.51,8.52,8.52,0,0,1,1.86-2.86A9.48,9.48,0,0,1,165.18.73,8.05,8.05,0,0,1,168.57,0h28.08a1.27,1.27,0,0,1,1.42,1.47V11a1.32,1.32,0,0,1-.41,1,1.41,1.41,0,0,1-1,.39H172.89a1.23,1.23,0,0,0-1,.42,1.52,1.52,0,0,0-.37,1v6.25a1.52,1.52,0,0,0,.37,1,1.22,1.22,0,0,0,1,.42H191A8.43,8.43,0,0,1,194.38,22.23Z"/><path class="cls-1" d="M247.9,11.65a1.44,1.44,0,0,1-.41,1,1.34,1.34,0,0,1-1,.42H235.91a1.41,1.41,0,0,0-1,.39,1.31,1.31,0,0,0-.41,1v38a1.52,1.52,0,0,1-.37,1,1.23,1.23,0,0,1-1,.42H222.8a1.34,1.34,0,0,1-1-.42,1.44,1.44,0,0,1-.41-1v-38a1.39,1.39,0,0,0-.37-1,1.29,1.29,0,0,0-1-.39H209.47a1.34,1.34,0,0,1-1-.42,1.44,1.44,0,0,1-.41-1V1.47A1.27,1.27,0,0,1,209.47,0h37a1.35,1.35,0,0,1,1,.42,1.45,1.45,0,0,1,.41,1Z"/><path class="cls-1" d="M291.48,0a8.06,8.06,0,0,1,3.39.73,9,9,0,0,1,2.76,1.93,9.38,9.38,0,0,1,1.86,2.86A8.87,8.87,0,0,1,300.2,9V52.55a1.44,1.44,0,0,1-.41,1,1.34,1.34,0,0,1-1,.42H288.43a1.34,1.34,0,0,1-1-.42,1.44,1.44,0,0,1-.41-1V38.74a1.53,1.53,0,0,0-.37-1,1.23,1.23,0,0,0-1-.42H270.92a1.34,1.34,0,0,0-1,.42,1.44,1.44,0,0,0-.41,1V52.55q0,1.47-1.42,1.47H257.81q-1.42,0-1.42-1.47V9a9.29,9.29,0,0,1,.67-3.51,8.52,8.52,0,0,1,1.86-2.86A9.48,9.48,0,0,1,261.72.73,8.05,8.05,0,0,1,265.11,0ZM287,25.7V12.12H269.51V25.7Z"/><path class="cls-1" d="M347.05,0a8.06,8.06,0,0,1,3.39.73,9,9,0,0,1,2.76,1.93,9.39,9.39,0,0,1,1.86,2.86A8.87,8.87,0,0,1,355.77,9V45a8.86,8.86,0,0,1-.71,3.51,9.86,9.86,0,0,1-1.86,2.89,8.19,8.19,0,0,1-2.76,1.93,8.43,8.43,0,0,1-3.39.69H313.38Q312,54,312,52.55V1.47Q312,0,313.38,0Zm-22,40.9h17.51V13.12H325.08Z"/><path class="cls-1" d="M404.34,11.65a1.44,1.44,0,0,1-.41,1,1.34,1.34,0,0,1-1,.42H392.34a1.41,1.41,0,0,0-1,.39,1.31,1.31,0,0,0-.41,1v38a1.52,1.52,0,0,1-.37,1,1.23,1.23,0,0,1-1,.42H379.23a1.34,1.34,0,0,1-1-.42,1.44,1.44,0,0,1-.41-1v-38a1.39,1.39,0,0,0-.37-1,1.29,1.29,0,0,0-1-.39H365.9a1.34,1.34,0,0,1-1-.42,1.44,1.44,0,0,1-.41-1V1.47A1.27,1.27,0,0,1,365.9,0h37a1.35,1.35,0,0,1,1,.42,1.45,1.45,0,0,1,.41,1Z"/><path class="cls-1" d="M46.22,117.57a1.45,1.45,0,0,1,.41,1v19a8.86,8.86,0,0,1-.71,3.51A9.84,9.84,0,0,1,44.06,144a8.19,8.19,0,0,1-2.76,1.93,8.43,8.43,0,0,1-3.39.69H11.55a8.43,8.43,0,0,1-3.39-.69A8.57,8.57,0,0,1,5.36,144a8.91,8.91,0,0,1-1.86-2.89,9.27,9.27,0,0,1-.67-3.51v-36a9.28,9.28,0,0,1,.67-3.51,8.51,8.51,0,0,1,1.86-2.86,9.47,9.47,0,0,1,2.79-1.93,8.06,8.06,0,0,1,3.39-.73H42.31a1.35,1.35,0,0,1,1,.42,1.45,1.45,0,0,1,.41,1v10.19a1.44,1.44,0,0,1-.41,1,1.34,1.34,0,0,1-1,.42h-25a1.41,1.41,0,0,0-1,.39,1.32,1.32,0,0,0-.41,1v25a1.31,1.31,0,0,0,.41,1,1.4,1.4,0,0,0,1,.39H32.11a1.28,1.28,0,0,0,1-.39,1.38,1.38,0,0,0,.37-1V118.62a1.44,1.44,0,0,1,.41-1,1.34,1.34,0,0,1,1-.42H45.22A1.35,1.35,0,0,1,46.22,117.57Z"/><path class="cls-1" d="M70.77,105.57V114c0,.21.12.31.37.31H92.37a1.35,1.35,0,0,1,1,.42,1.45,1.45,0,0,1,.41,1v7.72a1.27,1.27,0,0,1-1.42,1.47H71.14c-.25,0-.37.13-.37.39v8.33c0,.26.12.39.37.39h25a1.35,1.35,0,0,1,1,.42,1.45,1.45,0,0,1,.41,1v9.65a1.45,1.45,0,0,1-.41,1,1.34,1.34,0,0,1-1,.42H66.37a8.43,8.43,0,0,1-3.39-.69A8.58,8.58,0,0,1,60.19,144a8.92,8.92,0,0,1-1.86-2.89,9.28,9.28,0,0,1-.67-3.51v-36a9.29,9.29,0,0,1,.67-3.51,8.52,8.52,0,0,1,1.86-2.86A9.48,9.48,0,0,1,63,93.34a8.05,8.05,0,0,1,3.39-.73H96.09a1.35,1.35,0,0,1,1,.42,1.45,1.45,0,0,1,.41,1v9.72a1.32,1.32,0,0,1-.41,1,1.41,1.41,0,0,1-1,.39h-25C70.89,105.19,70.77,105.32,70.77,105.57Z"/><path class="cls-1" d="M154,145.39a.84.84,0,0,1,.07.89.9.9,0,0,1-.82.35H141.46a2.35,2.35,0,0,1-1.19-.35,2.31,2.31,0,0,1-.89-.89l-7.9-14.66a.53.53,0,0,0-.52-.31h-8.86c-.25,0-.37.13-.37.39v14.35q0,1.47-1.42,1.47H110q-1.42,0-1.42-1.47V94.07q0-1.47,1.42-1.47h33.67a8.06,8.06,0,0,1,3.39.73,9,9,0,0,1,2.76,1.93,9.38,9.38,0,0,1,1.86,2.86,8.87,8.87,0,0,1,.71,3.51v20.3a8.89,8.89,0,0,1-1.68,5.29,8.33,8.33,0,0,1-4.28,3.2l-.22.08q-.52.16-.22.46l.07.15Zm-14.82-40.21h-18v13.12h18Z"/><path class="cls-1" d="M200.38,92.61a8.06,8.06,0,0,1,3.39.73,9,9,0,0,1,2.76,1.93,9.38,9.38,0,0,1,1.86,2.86,8.87,8.87,0,0,1,.71,3.51v43.53a1.44,1.44,0,0,1-.41,1,1.34,1.34,0,0,1-1,.42H197.33a1.34,1.34,0,0,1-1-.42,1.44,1.44,0,0,1-.41-1V131.35a1.53,1.53,0,0,0-.37-1,1.23,1.23,0,0,0-1-.42H179.82a1.34,1.34,0,0,0-1,.42,1.44,1.44,0,0,0-.41,1v13.81q0,1.47-1.42,1.47H166.71q-1.42,0-1.42-1.47V101.64a9.29,9.29,0,0,1,.67-3.51,8.52,8.52,0,0,1,1.86-2.86,9.48,9.48,0,0,1,2.79-1.93,8.05,8.05,0,0,1,3.39-.73Zm-4.47,25.7V104.72H178.41v13.58Z"/><path class="cls-1" d="M280.5,114.83a8.21,8.21,0,0,1,2.76,1.93,10,10,0,0,1,1.86,2.86,8.59,8.59,0,0,1,.71,3.47V137.6a8.86,8.86,0,0,1-.71,3.51,9.84,9.84,0,0,1-1.86,2.89,8.19,8.19,0,0,1-2.76,1.93,8.43,8.43,0,0,1-3.39.69H247.38q-1.42,0-1.42-1.47v-9.34a1.44,1.44,0,0,1,.41-1,1.34,1.34,0,0,1,1-.42h25.33a1.41,1.41,0,0,0,1-.39,1.32,1.32,0,0,0,.41-1v-6.41a1.45,1.45,0,0,0-.41-1,1.35,1.35,0,0,0-1-.42h-18a8.42,8.42,0,0,1-3.39-.69,8.57,8.57,0,0,1-2.79-1.93,9,9,0,0,1-2.53-6.33V101.64a9.29,9.29,0,0,1,.67-3.51,8.52,8.52,0,0,1,1.86-2.86,9.48,9.48,0,0,1,2.79-1.93,8.05,8.05,0,0,1,3.39-.73h28.08a1.27,1.27,0,0,1,1.42,1.47v9.49a1.32,1.32,0,0,1-.41,1,1.41,1.41,0,0,1-1,.39H259a1.23,1.23,0,0,0-1,.42,1.52,1.52,0,0,0-.37,1v6.25a1.52,1.52,0,0,0,.37,1,1.22,1.22,0,0,0,1,.42h18.1A8.43,8.43,0,0,1,280.5,114.83Z"/><path class="cls-1" d="M340.46,93a1.45,1.45,0,0,1,.41,1V137.6a8.86,8.86,0,0,1-.71,3.51A9.85,9.85,0,0,1,338.3,144a8.19,8.19,0,0,1-2.76,1.93,8.43,8.43,0,0,1-3.39.69H305.78a8.43,8.43,0,0,1-3.39-.69A8.58,8.58,0,0,1,299.6,144a8.92,8.92,0,0,1-1.86-2.89,9.28,9.28,0,0,1-.67-3.51V94.07a1.27,1.27,0,0,1,1.42-1.47h10.28a1.27,1.27,0,0,1,1.42,1.47v38a1.31,1.31,0,0,0,.41,1,1.41,1.41,0,0,0,1,.39h14.75a1.28,1.28,0,0,0,1-.39,1.39,1.39,0,0,0,.37-1v-38a1.44,1.44,0,0,1,.41-1,1.34,1.34,0,0,1,1-.42h10.35A1.35,1.35,0,0,1,340.46,93Z"/><path class="cls-1" d="M365.94,106.11a1.32,1.32,0,0,0-.41,1v25a1.31,1.31,0,0,0,.41,1,1.41,1.41,0,0,0,1,.39h23.91a1.35,1.35,0,0,1,1,.42,1.45,1.45,0,0,1,.41,1v10.19a1.45,1.45,0,0,1-.41,1,1.34,1.34,0,0,1-1,.42H361.13a8.43,8.43,0,0,1-3.39-.69,8.58,8.58,0,0,1-2.79-1.93,8.92,8.92,0,0,1-1.86-2.89,9.28,9.28,0,0,1-.67-3.51v-36a9.29,9.29,0,0,1,.67-3.51,8.52,8.52,0,0,1,1.86-2.86,9.48,9.48,0,0,1,2.79-1.93,8.05,8.05,0,0,1,3.39-.73h29.72a1.35,1.35,0,0,1,1,.42,1.45,1.45,0,0,1,.41,1v10.19a1.45,1.45,0,0,1-.41,1,1.34,1.34,0,0,1-1,.42H366.94A1.41,1.41,0,0,0,365.94,106.11Z"/><path class="cls-1" d="M446.5,92.61a1.35,1.35,0,0,1,1,.42,1.45,1.45,0,0,1,.41,1v51.09a1.44,1.44,0,0,1-.41,1,1.34,1.34,0,0,1-1,.42H436.14a1.34,1.34,0,0,1-1-.42,1.44,1.44,0,0,1-.41-1V127.34a1.39,1.39,0,0,0-.37-1,1.29,1.29,0,0,0-1-.39H418.64a1.41,1.41,0,0,0-1,.39,1.32,1.32,0,0,0-.41,1v17.83a1.27,1.27,0,0,1-1.42,1.47H405.53q-1.42,0-1.42-1.47V94.07q0-1.47,1.42-1.47h10.28a1.27,1.27,0,0,1,1.42,1.47v17.29q0,1.47,1.42,1.47h14.75a1.23,1.23,0,0,0,1-.42,1.52,1.52,0,0,0,.37-1V94.07a1.44,1.44,0,0,1,.41-1,1.34,1.34,0,0,1,1-.42Z"/><path class="cls-1" d="M496.63,104.26a1.44,1.44,0,0,1-.41,1,1.34,1.34,0,0,1-1,.42H484.64a1.41,1.41,0,0,0-1,.39,1.31,1.31,0,0,0-.41,1v38a1.52,1.52,0,0,1-.37,1,1.23,1.23,0,0,1-1,.42H471.53a1.34,1.34,0,0,1-1-.42,1.44,1.44,0,0,1-.41-1v-38a1.39,1.39,0,0,0-.37-1,1.29,1.29,0,0,0-1-.39H458.19a1.34,1.34,0,0,1-1-.42,1.44,1.44,0,0,1-.41-1V94.07a1.27,1.27,0,0,1,1.42-1.47h37a1.35,1.35,0,0,1,1,.42,1.45,1.45,0,0,1,.41,1Z"/><path class="cls-1" d="M566,92.61a8.06,8.06,0,0,1,3.39.73,9,9,0,0,1,2.76,1.93A9.39,9.39,0,0,1,574,98.13a8.87,8.87,0,0,1,.71,3.51v36a8.86,8.86,0,0,1-.71,3.51,9.86,9.86,0,0,1-1.86,2.89,8.19,8.19,0,0,1-2.76,1.93,8.43,8.43,0,0,1-3.39.69H532.31q-1.42,0-1.42-1.47V94.07q0-1.47,1.42-1.47Zm-22,40.9h17.51V105.73H544Z"/><path class="cls-1" d="M599.28,105.57V114c0,.21.12.31.37.31h21.23a1.35,1.35,0,0,1,1,.42,1.45,1.45,0,0,1,.41,1v7.72a1.27,1.27,0,0,1-1.42,1.47H599.65c-.25,0-.37.13-.37.39v8.33c0,.26.12.39.37.39h25a1.35,1.35,0,0,1,1,.42,1.45,1.45,0,0,1,.41,1v9.65a1.45,1.45,0,0,1-.41,1,1.34,1.34,0,0,1-1,.42H594.88a8.43,8.43,0,0,1-3.39-.69A8.58,8.58,0,0,1,588.7,144a8.92,8.92,0,0,1-1.86-2.89,9.28,9.28,0,0,1-.67-3.51v-36a9.29,9.29,0,0,1,.67-3.51,8.52,8.52,0,0,1,1.86-2.86,9.48,9.48,0,0,1,2.79-1.93,8.05,8.05,0,0,1,3.39-.73h29.72a1.35,1.35,0,0,1,1,.42,1.45,1.45,0,0,1,.41,1v9.72a1.32,1.32,0,0,1-.41,1,1.41,1.41,0,0,1-1,.39h-25C599.4,105.19,599.28,105.32,599.28,105.57Z"/><path class="cls-1" d="M651,145.16a1.27,1.27,0,0,1-1.42,1.47H639.28q-1.42,0-1.42-1.47V94.07q0-1.47,1.42-1.47h10.28A1.27,1.27,0,0,1,651,94.07Z"/><path class="cls-1" d="M701.14,93.34a9,9,0,0,1,2.76,1.93,9.39,9.39,0,0,1,1.86,2.86,8.87,8.87,0,0,1,.71,3.51v43.53a1.44,1.44,0,0,1-.41,1,1.34,1.34,0,0,1-1,.42H694.7a1.23,1.23,0,0,1-1-.42,1.52,1.52,0,0,1-.37-1v-38a1.32,1.32,0,0,0-.41-1,1.42,1.42,0,0,0-1-.39H677.2a1.41,1.41,0,0,0-1,.39,1.32,1.32,0,0,0-.41,1v38a1.27,1.27,0,0,1-1.42,1.47H664.08q-1.42,0-1.42-1.47V94.07q0-1.47,1.42-1.47h33.67A8.06,8.06,0,0,1,701.14,93.34Z"/><path class="cls-1" d="M731.13,105.57V114c0,.21.12.31.37.31h21.23a1.35,1.35,0,0,1,1,.42,1.45,1.45,0,0,1,.41,1v7.72a1.27,1.27,0,0,1-1.42,1.47H731.5c-.25,0-.37.13-.37.39v8.33c0,.26.12.39.37.39h25a1.35,1.35,0,0,1,1,.42,1.45,1.45,0,0,1,.41,1v9.65a1.45,1.45,0,0,1-.41,1,1.34,1.34,0,0,1-1,.42H726.73a8.43,8.43,0,0,1-3.39-.69,8.58,8.58,0,0,1-2.79-1.93,8.92,8.92,0,0,1-1.86-2.89,9.28,9.28,0,0,1-.67-3.51v-36a9.29,9.29,0,0,1,.67-3.51,8.52,8.52,0,0,1,1.86-2.86,9.48,9.48,0,0,1,2.79-1.93,8.05,8.05,0,0,1,3.39-.73h29.72a1.35,1.35,0,0,1,1,.42,1.45,1.45,0,0,1,.41,1v9.72a1.32,1.32,0,0,1-.41,1,1.41,1.41,0,0,1-1,.39h-25C731.25,105.19,731.13,105.32,731.13,105.57Z"/><path class="cls-1" d="M39.85,196.87a1.44,1.44,0,0,1-.41,1,1.34,1.34,0,0,1-1,.42H27.86a1.41,1.41,0,0,0-1,.39,1.31,1.31,0,0,0-.41,1v38a1.52,1.52,0,0,1-.37,1,1.23,1.23,0,0,1-1,.42H14.75a1.34,1.34,0,0,1-1-.42,1.44,1.44,0,0,1-.41-1v-38a1.39,1.39,0,0,0-.37-1,1.29,1.29,0,0,0-1-.39H1.42a1.34,1.34,0,0,1-1-.42,1.44,1.44,0,0,1-.41-1V186.68a1.27,1.27,0,0,1,1.42-1.47h37a1.35,1.35,0,0,1,1,.42,1.45,1.45,0,0,1,.41,1Z"/><path class="cls-1" d="M82.61,185.22a8.06,8.06,0,0,1,3.39.73,9,9,0,0,1,2.76,1.93,9.37,9.37,0,0,1,1.86,2.86,8.86,8.86,0,0,1,.71,3.51v36a8.86,8.86,0,0,1-.71,3.51,9.84,9.84,0,0,1-1.86,2.89A8.19,8.19,0,0,1,86,238.54a8.43,8.43,0,0,1-3.39.69H56.24a8.43,8.43,0,0,1-3.39-.69,8.57,8.57,0,0,1-2.79-1.93,8.91,8.91,0,0,1-1.86-2.89,9.27,9.27,0,0,1-.67-3.51v-36a9.28,9.28,0,0,1,.67-3.51,8.51,8.51,0,0,1,1.86-2.86,9.47,9.47,0,0,1,2.79-1.93,8.06,8.06,0,0,1,3.39-.73Zm-4.47,13.12H60.64v27.78H78.14Z"/><path class="cls-1" d="M134.16,185.22a8.06,8.06,0,0,1,3.39.73,9,9,0,0,1,2.76,1.93,9.38,9.38,0,0,1,1.86,2.86,8.87,8.87,0,0,1,.71,3.51V214.7a8.86,8.86,0,0,1-.71,3.51,9.34,9.34,0,0,1-1.86,2.86,9,9,0,0,1-2.76,1.93,8,8,0,0,1-3.39.73H117.55a1.41,1.41,0,0,0-1,.39,1.32,1.32,0,0,0-.41,1v12.66a1.27,1.27,0,0,1-1.42,1.47H104.44q-1.42,0-1.42-1.47V186.68q0-1.47,1.42-1.47Zm-3.95,25.93V197.49H115.68v13.66Z"/><path class="cls-1" d="M190,237.77a1.27,1.27,0,0,1-1.42,1.47H178.26q-1.42,0-1.42-1.47V186.68q0-1.47,1.42-1.47h10.28a1.27,1.27,0,0,1,1.42,1.47Z"/><path class="cls-1" d="M236.73,185.22a8.06,8.06,0,0,1,3.39.73,9,9,0,0,1,2.76,1.93,9.39,9.39,0,0,1,1.86,2.86,8.87,8.87,0,0,1,.71,3.51v36a8.86,8.86,0,0,1-.71,3.51,9.86,9.86,0,0,1-1.86,2.89,8.19,8.19,0,0,1-2.76,1.93,8.43,8.43,0,0,1-3.39.69H203.06q-1.42,0-1.42-1.47V186.68q0-1.47,1.42-1.47Zm-22,40.9h17.51V198.33H214.76Z"/><path class="cls-1" d="M270,198.18v8.41c0,.21.12.31.37.31h21.23a1.35,1.35,0,0,1,1,.42,1.45,1.45,0,0,1,.41,1v7.72a1.27,1.27,0,0,1-1.42,1.47H270.4c-.25,0-.37.13-.37.39v8.33c0,.26.12.39.37.39h25a1.35,1.35,0,0,1,1,.42,1.45,1.45,0,0,1,.41,1v9.65a1.45,1.45,0,0,1-.41,1,1.34,1.34,0,0,1-1,.42H265.63a8.43,8.43,0,0,1-3.39-.69,8.58,8.58,0,0,1-2.79-1.93,8.92,8.92,0,0,1-1.86-2.89,9.28,9.28,0,0,1-.67-3.51v-36a9.29,9.29,0,0,1,.67-3.51,8.52,8.52,0,0,1,1.86-2.86,9.48,9.48,0,0,1,2.79-1.93,8.05,8.05,0,0,1,3.39-.73h29.72a1.35,1.35,0,0,1,1,.42,1.45,1.45,0,0,1,.41,1v9.72a1.32,1.32,0,0,1-.41,1,1.41,1.41,0,0,1-1,.39h-25C270.15,197.79,270,197.92,270,198.18Z"/><path class="cls-1" d="M321.5,198.18v8.41c0,.21.12.31.37.31H343.1a1.35,1.35,0,0,1,1,.42,1.45,1.45,0,0,1,.41,1v7.72a1.27,1.27,0,0,1-1.42,1.47H321.87c-.25,0-.37.13-.37.39v8.33c0,.26.12.39.37.39h25a1.35,1.35,0,0,1,1,.42,1.45,1.45,0,0,1,.41,1v9.65a1.45,1.45,0,0,1-.41,1,1.34,1.34,0,0,1-1,.42H317.11a8.43,8.43,0,0,1-3.39-.69,8.58,8.58,0,0,1-2.79-1.93,8.92,8.92,0,0,1-1.86-2.89,9.28,9.28,0,0,1-.67-3.51v-36a9.29,9.29,0,0,1,.67-3.51,8.52,8.52,0,0,1,1.86-2.86,9.48,9.48,0,0,1,2.79-1.93,8.05,8.05,0,0,1,3.39-.73h29.72a1.35,1.35,0,0,1,1,.42,1.45,1.45,0,0,1,.41,1v9.72a1.32,1.32,0,0,1-.41,1,1.41,1.41,0,0,1-1,.39h-25C321.62,197.79,321.5,197.92,321.5,198.18Z"/><path class="cls-1" d="M398.56,185.95a9,9,0,0,1,2.76,1.93,9.39,9.39,0,0,1,1.86,2.86,8.87,8.87,0,0,1,.71,3.51v43.53a1.44,1.44,0,0,1-.41,1,1.34,1.34,0,0,1-1,.42H392.12a1.23,1.23,0,0,1-1-.42,1.52,1.52,0,0,1-.37-1v-38a1.32,1.32,0,0,0-.41-1,1.42,1.42,0,0,0-1-.39H374.61a1.41,1.41,0,0,0-1,.39,1.32,1.32,0,0,0-.41,1v38a1.27,1.27,0,0,1-1.42,1.47H361.5q-1.42,0-1.42-1.47V186.68q0-1.47,1.42-1.47h33.67A8.06,8.06,0,0,1,398.56,185.95Z"/><path class="cls-1" d="M428.62,237.77a1.27,1.27,0,0,1-1.42,1.47H416.92q-1.42,0-1.42-1.47V227.12q0-1.46,1.42-1.47H427.2a1.27,1.27,0,0,1,1.42,1.47Zm-1.42-17.44a1.44,1.44,0,0,1-.41,1,1.34,1.34,0,0,1-1,.42h-7.45a1.34,1.34,0,0,1-1-.42,1.44,1.44,0,0,1-.41-1l-1.34-33.65a1.21,1.21,0,0,1,.34-1,1.34,1.34,0,0,1,1-.42H427.2a1.35,1.35,0,0,1,1,.42,1.22,1.22,0,0,1,.33,1Z"/></g></g></svg>