<svg xmlns="http://www.w3.org/2000/svg" viewBox="0 0 288.88 519.76"><defs><style>.cls-1{fill:#fdeb19;stroke:#29306f;stroke-linejoin:round;stroke-width:3.41px;}</style></defs><title>Element 2</title><g id="Ebene_2" data-name="Ebene 2"><g id="Ebene_1-2" data-name="Ebene 1"><polygon class="cls-1" points="130.9 286.8 29.66 327.65 15.18 308.91 101.04 274.83 130.9 286.8"/><polygon class="cls-1" points="92.79 68.22 29.63 327.81 1.71 315.18 64.55 55.02 92.79 68.22"/><polygon class="cls-1" points="244.7 177.8 169.97 208.38 141.65 195.23 258.7 148.87 244.7 177.8"/><polygon class="cls-1" points="141.25 195.27 169.49 208.59 223.56 15.35 191.01 14.52 141.25 195.27"/><polygon class="cls-1" points="223.56 15.35 93.01 68.32 64.55 55.02 196.51 1.71 223.56 15.35"/><polygon class="cls-1" points="76.26 505.47 104.25 518.05 287.18 159.21 258.58 148.84 76.26 505.47"/><polygon class="cls-1" points="130.97 286.72 104.25 518.05 76.1 505.58 100.85 274.66 130.97 286.72"/></g></g></svg>