<svg xmlns="http://www.w3.org/2000/svg" viewBox="0 0 629.91 998.02"><defs><style>.cls-1{fill:#ffed00;stroke:#ffed00;}.cls-1,.cls-2,.cls-3,.cls-4,.cls-5{stroke-linejoin:round;stroke-width:3.43px;}.cls-2{fill:#ec6996;stroke:#ed6a97;}.cls-3{fill:#a4d9e5;stroke:#a4d9e5;}.cls-4{fill:#29306f;stroke:#29306f;}.cls-5{fill:#fbdbe5;stroke:#fbdbe5;}.cls-6,.cls-7{fill:#1d1d1b;}.cls-7{stroke:#1d1d1b;stroke-miterlimit:10;stroke-width:0.43px;}</style></defs><title>Element 1</title><g id="Ebene_2" data-name="Ebene 2"><g id="Ebene_1-2" data-name="Ebene 1"><polygon class="cls-1" points="250.58 550.87 55.55 629.55 27.67 593.46 193.05 527.81 250.58 550.87"/><polygon class="cls-2" points="177.16 129.83 55.51 629.86 1.72 605.54 122.77 104.42 177.16 129.83"/><polygon class="cls-1" points="469.77 340.91 325.83 399.82 271.28 374.49 496.74 285.19 469.77 340.91"/><polygon class="cls-3" points="270.51 374.57 324.91 400.22 429.06 28 366.35 26.4 270.51 374.57"/><polygon class="cls-4" points="429.06 28 177.59 130.03 122.77 104.42 376.95 1.72 429.06 28"/><polygon class="cls-5" points="145.32 972.07 199.24 996.31 551.59 305.1 496.51 285.13 145.32 972.07"/><path class="cls-6" d="M317.66,598.78a3.33,3.33,0,0,1,.11.8v24.25a.83.83,0,0,1-.84.84h-6.16a.83.83,0,0,1-.84-.84v-21.9a.76.76,0,0,0-.8-.8h-8.77a.85.85,0,0,0-.6.22.74.74,0,0,0-.24.58v21.9a.75.75,0,0,1-.84.84h-6.11a.74.74,0,0,1-.84-.84V594.42a.83.83,0,0,1,.84-.84h19.19a3.58,3.58,0,0,1,.82.11,4.81,4.81,0,0,1,.77.24l4.08,4.09A5.1,5.1,0,0,1,317.66,598.78Z"/><path class="cls-6" d="M331.69,601v4.84c0,.12.07.18.22.18h12.63a.83.83,0,0,1,.84.84v4.44a.75.75,0,0,1-.84.84H331.91a.2.2,0,0,0-.22.22v4.8a.2.2,0,0,0,.22.22h14.84a.83.83,0,0,1,.84.84v5.55a.83.83,0,0,1-.84.84H329.87a4.05,4.05,0,0,1-.8-.09,2.54,2.54,0,0,1-.75-.27l-4.08-4.09a2.56,2.56,0,0,1-.27-.75,4.08,4.08,0,0,1-.09-.8v-19.1a4.08,4.08,0,0,1,.09-.8,2.56,2.56,0,0,1,.27-.75l4.08-4.09a5.07,5.07,0,0,1,.75-.24,3.3,3.3,0,0,1,.8-.11h16.88a.83.83,0,0,1,.84.84V600a.74.74,0,0,1-.24.58.86.86,0,0,1-.6.22H331.91A.2.2,0,0,0,331.69,601Z"/><path class="cls-6" d="M383.14,624.48a.55.55,0,0,1-.49.2H376a1.41,1.41,0,0,1-.71-.2,1.32,1.32,0,0,1-.53-.51l-6.47-9.28L361.78,624a1.34,1.34,0,0,1-.53.51,1.42,1.42,0,0,1-.71.2h-6.65a.54.54,0,0,1-.49-.2c-.09-.13-.06-.3.09-.51L363,609.35a1.52,1.52,0,0,0,0-1.42l-9-13.64c-.15-.21-.18-.38-.09-.51a.55.55,0,0,1,.49-.2h6.65a1.45,1.45,0,0,1,.71.2,1.35,1.35,0,0,1,.53.51l5.94,8.35,5.9-8.35a1.35,1.35,0,0,1,.53-.51,1.45,1.45,0,0,1,.71-.2h6.65a.55.55,0,0,1,.49.2c.09.13.06.3-.09.51l-9,13.64a1.52,1.52,0,0,0,0,1.42L383,624C383.19,624.18,383.22,624.35,383.14,624.48Z"/><path class="cls-6" d="M410.92,600.29a.82.82,0,0,1-.24.6.81.81,0,0,1-.6.24h-6.29a.85.85,0,0,0-.6.22.74.74,0,0,0-.24.58v21.9a.86.86,0,0,1-.22.6.74.74,0,0,1-.58.24H396a.83.83,0,0,1-.84-.84v-21.9a.76.76,0,0,0-.8-.8h-6.29a.83.83,0,0,1-.84-.84v-5.86a.75.75,0,0,1,.84-.84h22a.83.83,0,0,1,.84.84Z"/><path class="cls-6" d="M451.73,600.29a.82.82,0,0,1-.24.6.81.81,0,0,1-.6.24h-6.29a.85.85,0,0,0-.6.22.74.74,0,0,0-.24.58v21.9a.86.86,0,0,1-.22.6.74.74,0,0,1-.58.24h-6.16a.83.83,0,0,1-.84-.84v-21.9a.76.76,0,0,0-.8-.8h-6.29a.83.83,0,0,1-.84-.84v-5.86a.75.75,0,0,1,.84-.84h22a.83.83,0,0,1,.84.84Z"/><path class="cls-6" d="M481.24,598a5.1,5.1,0,0,1,.24.75,3.33,3.33,0,0,1,.11.8v19.1a3.33,3.33,0,0,1-.11.8,5.1,5.1,0,0,1-.24.75l-4.08,4.09a2.55,2.55,0,0,1-.77.27,4.4,4.4,0,0,1-.82.09h-14a4,4,0,0,1-.8-.09,2.56,2.56,0,0,1-.75-.27l-4.08-4.09a2.43,2.43,0,0,1-.27-.75,4.08,4.08,0,0,1-.09-.8v-19.1a4.08,4.08,0,0,1,.09-.8,2.43,2.43,0,0,1,.27-.75l4.08-4.09a5.11,5.11,0,0,1,.75-.24,3.29,3.29,0,0,1,.8-.11h14a3.58,3.58,0,0,1,.82.11,4.89,4.89,0,0,1,.77.24Zm-7.49,3.11H463.34v16h10.41Z"/><path class="cls-6" d="M511.15,598a5.1,5.1,0,0,1,.24.75,3.34,3.34,0,0,1,.11.8v10.13a3.61,3.61,0,0,1-.11.82,5,5,0,0,1-.24.78l-4.08,4.09a4.69,4.69,0,0,1-.78.24,3.58,3.58,0,0,1-.82.11h-9a.86.86,0,0,0-.6.22.75.75,0,0,0-.24.58v7.28a.75.75,0,0,1-.84.84h-6.11a.74.74,0,0,1-.84-.84V594.42a.83.83,0,0,1,.84-.84h16.84a3.57,3.57,0,0,1,.82.11,4.93,4.93,0,0,1,.78.24ZM504,608.51v-7.86h-8.69v7.86Z"/><path class="cls-6" d="M538,623.83a.75.75,0,0,1-.84.84H531a.74.74,0,0,1-.84-.84V594.42a.74.74,0,0,1,.84-.84h6.11a.75.75,0,0,1,.84.84Z"/><path class="cls-6" d="M569.91,598a5.1,5.1,0,0,1,.24.75,3.33,3.33,0,0,1,.11.8v19.1a3.33,3.33,0,0,1-.11.8,5.1,5.1,0,0,1-.24.75l-4.08,4.09a2.52,2.52,0,0,1-.77.27,4.4,4.4,0,0,1-.82.09H545a.74.74,0,0,1-.84-.84V594.42a.83.83,0,0,1,.84-.84h19.19a3.58,3.58,0,0,1,.82.11,4.81,4.81,0,0,1,.77.24Zm-14.09,3.11H552v16h10.41v-16h-6.6Z"/><path class="cls-6" d="M584.13,601v4.84c0,.12.07.18.22.18H597a.83.83,0,0,1,.84.84v4.44a.75.75,0,0,1-.84.84H584.35a.2.2,0,0,0-.22.22v4.8a.2.2,0,0,0,.22.22H599.2a.83.83,0,0,1,.84.84v5.55a.83.83,0,0,1-.84.84H582.31a4.05,4.05,0,0,1-.8-.09,2.54,2.54,0,0,1-.75-.27l-4.08-4.09a2.56,2.56,0,0,1-.27-.75,4.08,4.08,0,0,1-.09-.8v-19.1a4.08,4.08,0,0,1,.09-.8,2.56,2.56,0,0,1,.27-.75l4.08-4.09a5.07,5.07,0,0,1,.75-.24,3.3,3.3,0,0,1,.8-.11H599.2a.83.83,0,0,1,.84.84V600a.74.74,0,0,1-.24.58.86.86,0,0,1-.6.22H584.35A.2.2,0,0,0,584.13,601Z"/><path class="cls-6" d="M614,601v4.84c0,.12.07.18.22.18h12.63a.83.83,0,0,1,.84.84v4.44a.75.75,0,0,1-.84.84H614.22a.2.2,0,0,0-.22.22v4.8a.2.2,0,0,0,.22.22h14.84a.83.83,0,0,1,.84.84v5.55a.83.83,0,0,1-.84.84H612.18a4.05,4.05,0,0,1-.8-.09,2.54,2.54,0,0,1-.75-.27l-4.08-4.09a2.56,2.56,0,0,1-.27-.75,4.08,4.08,0,0,1-.09-.8v-19.1a4.08,4.08,0,0,1,.09-.8,2.56,2.56,0,0,1,.27-.75l4.08-4.09a5.07,5.07,0,0,1,.75-.24,3.3,3.3,0,0,1,.8-.11h16.88a.83.83,0,0,1,.84.84V600a.74.74,0,0,1-.24.58.86.86,0,0,1-.6.22H614.22A.2.2,0,0,0,614,601Z"/><polygon class="cls-2" points="250.7 550.71 199.24 996.31 145.02 972.29 192.69 527.49 250.7 550.71"/><path class="cls-7" d="M265.88,516a3,3,0,0,1,.91,2.23V555.9a12.47,12.47,0,0,1-.41,3,18.82,18.82,0,0,1-.91,2.81L250.26,576.9a9.34,9.34,0,0,1-2.89,1,16.46,16.46,0,0,1-3.06.33H191.9a15.16,15.16,0,0,1-3-.33,9.28,9.28,0,0,1-2.81-1l-15.21-15.21a9.26,9.26,0,0,1-1-2.81,15.16,15.16,0,0,1-.33-3V484.82a15.23,15.23,0,0,1,.33-3,9.34,9.34,0,0,1,1-2.81l15.21-15.21a18.66,18.66,0,0,1,2.81-.91,12.37,12.37,0,0,1,3-.41h65.3a3.1,3.1,0,0,1,3.14,3.14v21.82a3.1,3.1,0,0,1-3.14,3.14H201.82a3.21,3.21,0,0,0-2.23.83,2.78,2.78,0,0,0-.91,2.15v53.56a3.1,3.1,0,0,0,3.14,3.14h32.73a2.77,2.77,0,0,0,2.15-.91,3.2,3.2,0,0,0,.83-2.23V518.21a3.1,3.1,0,0,1,3.14-3.14h23A3,3,0,0,1,265.88,516Z"/><path class="cls-7" d="M379.28,463.41a3,3,0,0,1,.91,2.23v20.83a2.76,2.76,0,0,1-.91,2.15,3.19,3.19,0,0,1-2.23.83H321.67a.73.73,0,0,0-.83.83v18q0,.66.83.66h47.28a2.78,2.78,0,0,1,2.15.91,3.2,3.2,0,0,1,.83,2.23v16.53a3.19,3.19,0,0,1-.83,2.23,2.77,2.77,0,0,1-2.15.91H321.67a.73.73,0,0,0-.83.83v17.86a.73.73,0,0,0,.83.83h55.38a3.11,3.11,0,0,1,3.14,3.14v20.66a3.11,3.11,0,0,1-3.14,3.14H294.89q-3.14,0-3.14-3.14V465.64a3.1,3.1,0,0,1,3.14-3.14h82.16A3,3,0,0,1,379.28,463.41Z"/><path class="cls-7" d="M507.32,575.58a1.75,1.75,0,0,1,.16,1.9,2,2,0,0,1-1.82.74H479.38a5.34,5.34,0,0,1-2.65-.74,5,5,0,0,1-2-1.9l-18.51-31.41a1.19,1.19,0,0,0-1.16-.66H436.4a.73.73,0,0,0-.83.83v30.75q0,3.14-3.14,3.14H409.62q-3.14,0-3.14-3.14V465.64a3.1,3.1,0,0,1,3.14-3.14H481.2a13.43,13.43,0,0,1,3.06.41,18.14,18.14,0,0,1,2.89.91L502.36,479a19.41,19.41,0,0,1,.91,2.81,12.53,12.53,0,0,1,.41,3v36a7.42,7.42,0,0,1-.5,2.4,15.81,15.81,0,0,1-1.16,2.56l-15.21,15.54Zm-32.9-86.13h-40v28.1h40v-28.1Z"/><path class="cls-7" d="M628.16,478.87a18.07,18.07,0,0,1,.91,2.89,13.55,13.55,0,0,1,.41,3.06v90.26a2.77,2.77,0,0,1-.91,2.15,3.19,3.19,0,0,1-2.23.83h-23a2.84,2.84,0,0,1-3-3V545.32a2.78,2.78,0,0,0-.91-2.15,3.2,3.2,0,0,0-2.23-.83H564.51a3.19,3.19,0,0,0-2.23.83,2.77,2.77,0,0,0-.91,2.15v29.76a2.84,2.84,0,0,1-3,3h-23a3.18,3.18,0,0,1-2.23-.83,2.76,2.76,0,0,1-.91-2.15V484.32c.11-.88.27-1.82.5-2.81a15,15,0,0,1,.83-2.64l15.21-15.21a18.9,18.9,0,0,1,2.81-.91,12.51,12.51,0,0,1,3-.41H607a13.58,13.58,0,0,1,3.06.41,18.33,18.33,0,0,1,2.89.91Zm-27.77,9.42h-39v29.26h39Z"/></g></g></svg>