<svg xmlns="http://www.w3.org/2000/svg" viewBox="0 0 196.19 492.47"><defs><style>.cls-1{fill:#ec6996;}.cls-2{fill:none;stroke:#ec6996;stroke-linejoin:round;stroke-width:6.82px;}</style></defs><title>Element 25</title><g id="Ebene_2" data-name="Ebene 2"><g id="Ebene_1-2" data-name="Ebene 1"><path class="cls-1" d="M51.69,118.2h-22a6,6,0,0,1-6.44-6.44V38.6l-4.64,3.6a4.77,4.77,0,0,1-5.46.71,5,5,0,0,1-2.47-4.65V16a9,9,0,0,1,1.11-4.22,10.5,10.5,0,0,1,2.5-3.17l.1-.08,7.76-6A10.6,10.6,0,0,1,25.89.62,13.47,13.47,0,0,1,29.74,0h22a6,6,0,0,1,6.44,6.44V111.77A6,6,0,0,1,51.69,118.2Zm-21.57-6.82H51.3V6.82H29.74a6.76,6.76,0,0,0-1.88.33,3.84,3.84,0,0,0-1.35.63l-.09.07-7.73,6a3.87,3.87,0,0,0-.81,1.1,2.44,2.44,0,0,0-.32,1V34.42l4.64-3.6a6.55,6.55,0,0,1,3.42-1.6,4.08,4.08,0,0,1,3.22,1,3.94,3.94,0,0,1,1.29,3Z"/><path class="cls-1" d="M145.73,118.2H97.68a12.44,12.44,0,0,1-2.44-.19,20.61,20.61,0,0,1-7.58-2.27A23.37,23.37,0,0,1,81.42,111a21.37,21.37,0,0,1-4.25-6.71,21.7,21.7,0,0,1-1.52-8.11V74.54a11.5,11.5,0,0,1,.77-4,11.65,11.65,0,0,1,1.94-3.47l1.94-2.26L81.77,63l1.38-1.54a17.32,17.32,0,0,0,1.28-1.81,1.5,1.5,0,0,0,.28-.74l0-.42a1,1,0,0,0-.09-.16,10,10,0,0,0-1.17-1.47l-.29-.33L81.6,54.5l-3.45-4.39a10.61,10.61,0,0,1-1.87-3.58,12.69,12.69,0,0,1-.64-3.81V22a22.06,22.06,0,0,1,1.7-8.56,21,21,0,0,1,4.75-7,23.72,23.72,0,0,1,7-4.65A21.19,21.19,0,0,1,97.68,0h48.05a21.21,21.21,0,0,1,8.62,1.8A22.11,22.11,0,0,1,166,13.41a21.23,21.23,0,0,1,1.8,8.62V42.71a11.53,11.53,0,0,1-.77,4,11.86,11.86,0,0,1-1.87,3.4l-5.2,6.83a9.65,9.65,0,0,0-1.16,1.47,1.44,1.44,0,0,0-.2.41,3.29,3.29,0,0,0,.41.9,16.79,16.79,0,0,0,1.28,1.81l1.61,1.82L163,64.89l2.05,2.22A11.8,11.8,0,0,1,167,70.57a11.58,11.58,0,0,1,.77,4V96.18a17.58,17.58,0,0,1-.1,1.88c-.06.5-.13,1-.23,1.53a5.21,5.21,0,0,1-.24,1.28,13.46,13.46,0,0,1-.94,3.09,12.54,12.54,0,0,1-.56,1.3c-.32.74-.7,1.5-1.12,2.25v.59l-1,1c-.11.11-.22.21-.33.3s-.2.3-.31.43a4.35,4.35,0,0,1-1.14,1.31c-.17.21-.37.43-.6.65l-1,1-.32.16a5.87,5.87,0,0,1-.89.74,4.68,4.68,0,0,1-.74.58l-.12.11-1,.5a31,31,0,0,1-3,1.61,16.53,16.53,0,0,1-4.11,1.31l-.3.05h-.77q-.74.14-1.34.21A14.53,14.53,0,0,1,145.73,118.2Zm10.59-3.34h0ZM96.6,111.32a6.63,6.63,0,0,0,1.07.05h48.05a8,8,0,0,0,1-.05c.36,0,.76-.11,1.19-.2l.33-.07h.81a9.55,9.55,0,0,0,2.13-.71,23.74,23.74,0,0,0,2.43-1.32l.6-.32.26-.17a5.13,5.13,0,0,1,.62-.48,6.76,6.76,0,0,1,.91-.75l.35-.35.09-.09.55-1.09.56-.19.07-.14.25-.49.39-.39.12-.12a4.64,4.64,0,0,1,.28-.39c.3-.54.56-1.08.79-1.6l.09-.19a5.47,5.47,0,0,0,.29-.67l.11-.29a6.44,6.44,0,0,0,.53-1.75l.2-1c.08-.44.15-.85.2-1.25a10.58,10.58,0,0,0,.06-1.12V74.54a4.93,4.93,0,0,0-.35-1.61,5.26,5.26,0,0,0-.73-1.4l-2.25-2.46-1.17-1.61L155,65.9a23.44,23.44,0,0,1-1.87-2.61,9.62,9.62,0,0,1-1.45-3.93l0-.42a7.75,7.75,0,0,1,1.37-4.36,16.73,16.73,0,0,1,1.85-2.33l1.47-1.91,3.42-4.56a5,5,0,0,0,.78-1.47,4.81,4.81,0,0,0,.34-1.6V22a14.23,14.23,0,0,0-1.22-5.86A15.29,15.29,0,0,0,151.59,8a14.23,14.23,0,0,0-5.86-1.22H97.68A14.41,14.41,0,0,0,91.81,8a16.92,16.92,0,0,0-5,3.31,14,14,0,0,0-3.21,4.76A15.05,15.05,0,0,0,82.47,22V42.71a6,6,0,0,0,.32,1.76,3.81,3.81,0,0,0,.64,1.31l.07.08,5,6.39a17,17,0,0,1,1.84,2.33,7,7,0,0,1,1.21,4.57,8.18,8.18,0,0,1-1.31,4.15,23.84,23.84,0,0,1-1.86,2.6l-.09.1L86.9,67.53l-1.38,1.69-2,2.29a5,5,0,0,0-.74,1.42,4.8,4.8,0,0,0-.35,1.61V96.18a14.92,14.92,0,0,0,1,5.57,14.58,14.58,0,0,0,2.9,4.58,16.6,16.6,0,0,0,4.43,3.37,13.87,13.87,0,0,0,5.25,1.53l.53.09Zm58.87-3.47-.06,0Zm1-1h0Zm4.41-3.39h0Zm-19.73-9.56H102.06V65.24h39.12ZM108.88,87h25.48v-15H108.88Zm32.3-36.14H102.06V24.19h39.12Zm-32.3-6.82h25.48V31H108.88Z"/><path class="cls-1" d="M51.69,275h-22a6,6,0,0,1-6.44-6.44V195.41L18.66,199a4.77,4.77,0,0,1-5.46.71,5,5,0,0,1-2.47-4.65V172.8a9,9,0,0,1,1.11-4.22,10.5,10.5,0,0,1,2.5-3.17l.1-.08,7.76-6a10.6,10.6,0,0,1,3.7-1.88,13.47,13.47,0,0,1,3.84-.62h22a6,6,0,0,1,6.44,6.44V268.58A6,6,0,0,1,51.69,275ZM30.13,268.2H51.3V163.64H29.74a6.76,6.76,0,0,0-1.88.33,3.84,3.84,0,0,0-1.35.63l-.09.07-7.73,6a3.87,3.87,0,0,0-.81,1.1,2.44,2.44,0,0,0-.32,1v18.44l4.64-3.6a6.55,6.55,0,0,1,3.42-1.6,4.08,4.08,0,0,1,3.22,1,3.94,3.94,0,0,1,1.29,3Z"/><path class="cls-1" d="M160.37,275H82.08a6,6,0,0,1-6.44-6.44V223.08a21.47,21.47,0,0,1,1.71-8.5,22.12,22.12,0,0,1,4.7-7,22.06,22.06,0,0,1,15.62-6.41H135V189.1H85.42a6.14,6.14,0,0,1-6.28-6.28V163.25a6.48,6.48,0,0,1,1.69-4.45,6,6,0,0,1,4.59-2h59.35a20.65,20.65,0,0,1,8.57,1.81,24.14,24.14,0,0,1,6.85,4.64,21,21,0,0,1,4.75,7,22,22,0,0,1,1.7,8.56v3.76a4.33,4.33,0,0,1,.16,1.17v40.57a6,6,0,0,1-2,4.59,6.49,6.49,0,0,1-4.45,1.69H107.45v12.27h52.91a6,6,0,0,1,4.59,2,6.5,6.5,0,0,1,1.69,4.45v19.25A6.49,6.49,0,0,1,165,273,6,6,0,0,1,160.37,275ZM82.47,268.2h77.34V249.72H106.9a6.07,6.07,0,0,1-6.21-5.13l-.07-.33V229.34l.1-.41c.8-3.21,3.11-5.13,6.17-5.13H160V184.85l-.16-.16v-5.85a15,15,0,0,0-1.17-5.92,14.23,14.23,0,0,0-3.21-4.76,17.32,17.32,0,0,0-4.92-3.32,13.68,13.68,0,0,0-5.75-1.21H86v18.63h49.41a6.4,6.4,0,0,1,6.44,6.44V201.6a6.4,6.4,0,0,1-6.44,6.44H97.68a15.24,15.24,0,0,0-5.92,1.17,15.06,15.06,0,0,0-4.87,3.24,15.3,15.3,0,0,0-3.26,4.82,14.68,14.68,0,0,0-1.16,5.82Z"/><path class="cls-1" d="M51.69,492.47h-22A6,6,0,0,1,23.3,486V412.87l-4.64,3.6a4.76,4.76,0,0,1-5.46.71,5,5,0,0,1-2.47-4.65V390.25A9,9,0,0,1,11.84,386a10.5,10.5,0,0,1,2.5-3.17l.1-.08,7.76-6a10.6,10.6,0,0,1,3.7-1.88,13.47,13.47,0,0,1,3.84-.62h22a6,6,0,0,1,6.44,6.44V486A6,6,0,0,1,51.69,492.47Zm-21.57-6.82H51.3V381.1H29.74a6.76,6.76,0,0,0-1.88.33,3.84,3.84,0,0,0-1.35.63l-.09.07-7.73,6a3.88,3.88,0,0,0-.81,1.1,2.44,2.44,0,0,0-.32,1v18.44l4.64-3.6a6.55,6.55,0,0,1,3.42-1.6,4.08,4.08,0,0,1,3.22,1,3.94,3.94,0,0,1,1.29,3Z"/><path class="cls-1" d="M145.73,492.47H97.68a12.44,12.44,0,0,1-2.44-.19A20.61,20.61,0,0,1,87.65,490a23.37,23.37,0,0,1-6.23-4.75,21.37,21.37,0,0,1-4.25-6.71,21.7,21.7,0,0,1-1.52-8.11V448.81a11.5,11.5,0,0,1,.77-4,11.65,11.65,0,0,1,1.94-3.47l1.94-2.26,1.49-1.81,1.38-1.54A17.32,17.32,0,0,0,84.44,434a1.5,1.5,0,0,0,.28-.74l0-.42a1,1,0,0,0-.09-.16,10,10,0,0,0-1.17-1.47l-.29-.33-1.59-2.07-3.45-4.39a10.61,10.61,0,0,1-1.87-3.58,12.69,12.69,0,0,1-.64-3.81V396.3a22.06,22.06,0,0,1,1.7-8.56,21,21,0,0,1,4.75-7,23.72,23.72,0,0,1,7-4.65,21.19,21.19,0,0,1,8.62-1.8h48.05a21.21,21.21,0,0,1,8.62,1.8A22.11,22.11,0,0,1,166,387.68a21.23,21.23,0,0,1,1.8,8.62V417a11.53,11.53,0,0,1-.77,4,11.86,11.86,0,0,1-1.87,3.4l-5.2,6.83a9.65,9.65,0,0,0-1.16,1.47,1.44,1.44,0,0,0-.2.41,3.29,3.29,0,0,0,.41.9,16.79,16.79,0,0,0,1.28,1.81l1.61,1.82,1.15,1.58,2.05,2.22a11.8,11.8,0,0,1,1.93,3.46,11.58,11.58,0,0,1,.77,4v21.64a17.58,17.58,0,0,1-.1,1.88c-.06.5-.13,1-.23,1.53a5.21,5.21,0,0,1-.24,1.28,13.46,13.46,0,0,1-.94,3.09,12.33,12.33,0,0,1-.56,1.3c-.32.74-.7,1.5-1.12,2.25v.59l-1,1c-.11.11-.22.21-.33.3s-.2.3-.31.43a4.35,4.35,0,0,1-1.14,1.31c-.17.21-.37.43-.6.65l-1,1-.32.16a5.87,5.87,0,0,1-.89.74,4.68,4.68,0,0,1-.74.58l-.12.11-1,.5a31,31,0,0,1-3,1.61A16.53,16.53,0,0,1,150,492.1l-.3.05h-.77q-.74.14-1.34.21A14.53,14.53,0,0,1,145.73,492.47Zm10.59-3.34h0ZM96.6,485.6a6.57,6.57,0,0,0,1.07.06h48.05a8,8,0,0,0,1-.05c.36,0,.76-.11,1.19-.2l.33-.07h.81a9.55,9.55,0,0,0,2.13-.71,23.74,23.74,0,0,0,2.43-1.32l.6-.32.26-.17a5.08,5.08,0,0,1,.62-.48,6.76,6.76,0,0,1,.91-.75l.35-.35.09-.09.55-1.09.56-.19.07-.14.25-.49.39-.39.12-.12a4.64,4.64,0,0,1,.28-.39c.3-.54.56-1.08.79-1.6l.09-.19a5.47,5.47,0,0,0,.29-.67l.11-.29a6.44,6.44,0,0,0,.53-1.75l.2-1c.08-.44.15-.85.2-1.25a10.58,10.58,0,0,0,.06-1.12V448.81a4.93,4.93,0,0,0-.35-1.61,5.23,5.23,0,0,0-.73-1.4l-2.25-2.46-1.17-1.61-1.4-1.55a23.38,23.38,0,0,1-1.87-2.61,9.62,9.62,0,0,1-1.45-3.93l0-.42a7.75,7.75,0,0,1,1.37-4.36,16.76,16.76,0,0,1,1.85-2.33l1.47-1.91,3.42-4.56a5,5,0,0,0,.78-1.47,4.81,4.81,0,0,0,.34-1.6V396.3a14.23,14.23,0,0,0-1.22-5.86,15.29,15.29,0,0,0-8.12-8.12,14.23,14.23,0,0,0-5.86-1.22H97.68a14.41,14.41,0,0,0-5.86,1.22,16.93,16.93,0,0,0-5,3.31,14,14,0,0,0-3.21,4.76,15.05,15.05,0,0,0-1.17,5.92V417a6,6,0,0,0,.32,1.76,3.81,3.81,0,0,0,.64,1.31l.07.08,5,6.39a17,17,0,0,1,1.84,2.33,7,7,0,0,1,1.21,4.57,8.18,8.18,0,0,1-1.31,4.15,23.84,23.84,0,0,1-1.86,2.6l-.09.1L86.9,441.8l-1.38,1.69-2,2.29a5,5,0,0,0-.74,1.42,4.8,4.8,0,0,0-.35,1.61v21.64a14.92,14.92,0,0,0,1,5.57,14.58,14.58,0,0,0,2.9,4.58A16.6,16.6,0,0,0,90.83,484a13.87,13.87,0,0,0,5.25,1.53l.53.09Zm58.87-3.47-.06,0Zm2.16-2.32h0Zm3.28-2.11h0Zm-19.73-9.56H102.06V439.51h39.12Zm-32.3-6.82h25.48v-15H108.88Zm32.3-36.14H102.06V398.46h39.12Zm-32.3-6.82h25.48V405.28H108.88Z"/><rect class="cls-2" x="3.41" y="307.49" width="189.36" height="24.74"/></g></g></svg>