<svg xmlns="http://www.w3.org/2000/svg" viewBox="0 0 720.1 239.24"><defs><style>.cls-1{fill:#ffed00;}</style></defs><title>Element 23</title><g id="Ebene_2" data-name="Ebene 2"><g id="Ebene_1-2" data-name="Ebene 1"><path class="cls-1" d="M43.39,25a1.45,1.45,0,0,1,.41,1V45a8.86,8.86,0,0,1-.71,3.51,9.85,9.85,0,0,1-1.86,2.89,8.19,8.19,0,0,1-2.76,1.93,8.43,8.43,0,0,1-3.39.69H8.71a8.43,8.43,0,0,1-3.39-.69A8.58,8.58,0,0,1,2.53,51.4,8.93,8.93,0,0,1,.67,48.5,9.29,9.29,0,0,1,0,45V9A9.3,9.3,0,0,1,.67,5.52,8.52,8.52,0,0,1,2.53,2.66,9.48,9.48,0,0,1,5.33.73,8.05,8.05,0,0,1,8.71,0H39.48a1.35,1.35,0,0,1,1,.42,1.45,1.45,0,0,1,.41,1V11.65a1.44,1.44,0,0,1-.41,1,1.34,1.34,0,0,1-1,.42h-25a1.41,1.41,0,0,0-1,.39,1.31,1.31,0,0,0-.41,1v25a1.31,1.31,0,0,0,.41,1,1.41,1.41,0,0,0,1,.39H29.27a1.28,1.28,0,0,0,1-.39,1.38,1.38,0,0,0,.37-1V26A1.44,1.44,0,0,1,31,25a1.34,1.34,0,0,1,1-.42H42.39A1.35,1.35,0,0,1,43.39,25Z"/><path class="cls-1" d="M67.94,13v8.41c0,.21.12.31.37.31H89.54a1.35,1.35,0,0,1,1,.42,1.45,1.45,0,0,1,.41,1v7.72a1.27,1.27,0,0,1-1.42,1.47H68.31c-.25,0-.37.13-.37.39v8.33c0,.26.12.39.37.39h25a1.35,1.35,0,0,1,1,.42,1.45,1.45,0,0,1,.41,1v9.65a1.44,1.44,0,0,1-.41,1,1.34,1.34,0,0,1-1,.42H63.54a8.43,8.43,0,0,1-3.39-.69,8.57,8.57,0,0,1-2.79-1.93A8.93,8.93,0,0,1,55.5,48.5,9.27,9.27,0,0,1,54.83,45V9a9.28,9.28,0,0,1,.67-3.51,8.52,8.52,0,0,1,1.86-2.86A9.47,9.47,0,0,1,60.15.73,8.06,8.06,0,0,1,63.54,0H93.26a1.35,1.35,0,0,1,1,.42,1.45,1.45,0,0,1,.41,1v9.72a1.32,1.32,0,0,1-.41,1,1.41,1.41,0,0,1-1,.39h-25C68.06,12.58,67.94,12.71,67.94,13Z"/><path class="cls-1" d="M161.09.42a1.45,1.45,0,0,1,.41,1V45a8.87,8.87,0,0,1-.71,3.51,9.87,9.87,0,0,1-1.86,2.89,8.2,8.2,0,0,1-2.76,1.93,8.43,8.43,0,0,1-3.39.69H115.16a8.43,8.43,0,0,1-3.39-.69A8.56,8.56,0,0,1,109,51.4a8.89,8.89,0,0,1-1.86-2.89,9.27,9.27,0,0,1-.67-3.51V1.47q0-1.47,1.42-1.47h10.28a1.27,1.27,0,0,1,1.42,1.47V40.9h8.27V1.47a1.44,1.44,0,0,1,.41-1,1.34,1.34,0,0,1,1-.42h9.39a1.35,1.35,0,0,1,1,.42,1.45,1.45,0,0,1,.41,1V40.9h8.34V1.47a1.52,1.52,0,0,1,.37-1,1.23,1.23,0,0,1,1-.42h10.35A1.35,1.35,0,0,1,161.09.42Z"/><path class="cls-1" d="M186.38,52.55Q186.38,54,185,54H174.68q-1.42,0-1.42-1.47V1.47A1.27,1.27,0,0,1,174.68,0H185q1.42,0,1.42,1.47Z"/><path class="cls-1" d="M236.54.73a9,9,0,0,1,2.76,1.93,9.38,9.38,0,0,1,1.86,2.86A8.88,8.88,0,0,1,241.87,9V52.55a1.44,1.44,0,0,1-.41,1,1.34,1.34,0,0,1-1,.42H230.1a1.23,1.23,0,0,1-1-.42,1.52,1.52,0,0,1-.37-1v-38a1.32,1.32,0,0,0-.41-1,1.42,1.42,0,0,0-1-.39H212.6a1.41,1.41,0,0,0-1,.39,1.32,1.32,0,0,0-.41,1v38q0,1.47-1.42,1.47H199.49q-1.42,0-1.42-1.47V1.47A1.27,1.27,0,0,1,199.49,0h33.67A8.06,8.06,0,0,1,236.54.73Z"/><path class="cls-1" d="M292.11.73a9,9,0,0,1,2.76,1.93,9.38,9.38,0,0,1,1.86,2.86A8.88,8.88,0,0,1,297.44,9V52.55a1.44,1.44,0,0,1-.41,1,1.34,1.34,0,0,1-1,.42H285.67a1.23,1.23,0,0,1-1-.42,1.52,1.52,0,0,1-.37-1v-38a1.32,1.32,0,0,0-.41-1,1.42,1.42,0,0,0-1-.39H268.17a1.41,1.41,0,0,0-1,.39,1.32,1.32,0,0,0-.41,1v38q0,1.47-1.42,1.47H255.06q-1.42,0-1.42-1.47V1.47A1.27,1.27,0,0,1,255.06,0h33.67A8.06,8.06,0,0,1,292.11.73Z"/><path class="cls-1" d="M322.1,13v8.41c0,.21.12.31.37.31H343.7a1.35,1.35,0,0,1,1,.42,1.45,1.45,0,0,1,.41,1v7.72a1.27,1.27,0,0,1-1.42,1.47H322.47c-.25,0-.37.13-.37.39v8.33c0,.26.12.39.37.39h25a1.35,1.35,0,0,1,1,.42,1.45,1.45,0,0,1,.41,1v9.65a1.44,1.44,0,0,1-.41,1,1.34,1.34,0,0,1-1,.42H317.7a8.43,8.43,0,0,1-3.39-.69,8.57,8.57,0,0,1-2.79-1.93,8.93,8.93,0,0,1-1.86-2.89A9.27,9.27,0,0,1,309,45V9a9.28,9.28,0,0,1,.67-3.51,8.52,8.52,0,0,1,1.86-2.86A9.47,9.47,0,0,1,314.31.73,8.06,8.06,0,0,1,317.7,0h29.72a1.35,1.35,0,0,1,1,.42,1.45,1.45,0,0,1,.41,1v9.72a1.32,1.32,0,0,1-.41,1,1.41,1.41,0,0,1-1,.39h-25C322.22,12.58,322.1,12.71,322.1,13Z"/><path class="cls-1" d="M43.47,93a1.45,1.45,0,0,1,.41,1V137.6a8.87,8.87,0,0,1-.71,3.51A9.87,9.87,0,0,1,41.31,144a8.2,8.2,0,0,1-2.76,1.93,8.43,8.43,0,0,1-3.39.69H8.79a8.43,8.43,0,0,1-3.39-.69A8.56,8.56,0,0,1,2.61,144a8.89,8.89,0,0,1-1.86-2.89,9.27,9.27,0,0,1-.67-3.51V94.07q0-1.47,1.42-1.47H11.77a1.27,1.27,0,0,1,1.42,1.47v38a1.31,1.31,0,0,0,.41,1,1.4,1.4,0,0,0,1,.39H29.35a1.28,1.28,0,0,0,1-.39,1.38,1.38,0,0,0,.37-1v-38a1.44,1.44,0,0,1,.41-1,1.34,1.34,0,0,1,1-.42H42.46A1.35,1.35,0,0,1,43.47,93Z"/><path class="cls-1" d="M94.12,93.34a9,9,0,0,1,2.76,1.93,9.38,9.38,0,0,1,1.86,2.86,8.88,8.88,0,0,1,.71,3.51v43.53a1.44,1.44,0,0,1-.41,1,1.34,1.34,0,0,1-1,.42H87.68a1.23,1.23,0,0,1-1-.42,1.52,1.52,0,0,1-.37-1v-38a1.32,1.32,0,0,0-.41-1,1.42,1.42,0,0,0-1-.39H70.17a1.41,1.41,0,0,0-1,.39,1.32,1.32,0,0,0-.41,1v38q0,1.47-1.42,1.47H57.06q-1.42,0-1.42-1.47V94.07a1.27,1.27,0,0,1,1.42-1.47H90.73A8.06,8.06,0,0,1,94.12,93.34Z"/><path class="cls-1" d="M146.3,92.61a8.06,8.06,0,0,1,3.39.73,9,9,0,0,1,2.76,1.93,9.38,9.38,0,0,1,1.86,2.86,8.88,8.88,0,0,1,.71,3.51v36a8.87,8.87,0,0,1-.71,3.51,9.85,9.85,0,0,1-1.86,2.89,8.2,8.2,0,0,1-2.76,1.93,8.43,8.43,0,0,1-3.39.69H112.63q-1.42,0-1.42-1.47V94.07a1.27,1.27,0,0,1,1.42-1.47Zm-22,40.9h17.51V105.73H124.32Z"/><path class="cls-1" d="M227.12,146.63H193.45q-1.42,0-1.42-1.47V94.07a1.27,1.27,0,0,1,1.42-1.47h10.28q1.42,0,1.42,1.47v38a1.31,1.31,0,0,0,.41,1,1.4,1.4,0,0,0,1,.39h14.75a1.28,1.28,0,0,0,1-.39,1.38,1.38,0,0,0,.37-1v-38a1.44,1.44,0,0,1,.41-1,1.34,1.34,0,0,1,1-.42h10.35a1.35,1.35,0,0,1,1,.42,1.45,1.45,0,0,1,.41,1V137.6a8.87,8.87,0,0,1-.71,3.51,9.85,9.85,0,0,1-1.86,2.89,8.2,8.2,0,0,1-2.76,1.93A8.43,8.43,0,0,1,227.12,146.63Z"/><path class="cls-1" d="M260.49,105.57V114c0,.21.12.31.37.31H282.1a1.35,1.35,0,0,1,1,.42,1.45,1.45,0,0,1,.41,1v7.72a1.27,1.27,0,0,1-1.42,1.47H260.87c-.25,0-.37.13-.37.39v8.33c0,.26.12.39.37.39h25a1.35,1.35,0,0,1,1,.42,1.45,1.45,0,0,1,.41,1v9.65a1.44,1.44,0,0,1-.41,1,1.34,1.34,0,0,1-1,.42H256.1a8.43,8.43,0,0,1-3.39-.69,8.57,8.57,0,0,1-2.79-1.93,8.93,8.93,0,0,1-1.86-2.89,9.27,9.27,0,0,1-.67-3.51v-36a9.28,9.28,0,0,1,.67-3.51,8.52,8.52,0,0,1,1.86-2.86,9.47,9.47,0,0,1,2.79-1.93,8.06,8.06,0,0,1,3.39-.73h29.72a1.35,1.35,0,0,1,1,.42,1.45,1.45,0,0,1,.41,1v9.72a1.32,1.32,0,0,1-.41,1,1.41,1.41,0,0,1-1,.39h-25C260.62,105.19,260.49,105.32,260.49,105.57Z"/><path class="cls-1" d="M343.77,145.39a.84.84,0,0,1,.07.89.9.9,0,0,1-.82.35H331.19a2.35,2.35,0,0,1-1.19-.35,2.31,2.31,0,0,1-.89-.89l-7.9-14.66a.53.53,0,0,0-.52-.31h-8.86c-.25,0-.37.13-.37.39v14.35a1.27,1.27,0,0,1-1.42,1.47H299.75q-1.42,0-1.42-1.47V94.07q0-1.47,1.42-1.47h33.67a8.06,8.06,0,0,1,3.39.73,9,9,0,0,1,2.76,1.93,9.38,9.38,0,0,1,1.86,2.86,8.86,8.86,0,0,1,.71,3.51v20.3a8.89,8.89,0,0,1-1.68,5.29,8.32,8.32,0,0,1-4.28,3.2l-.22.08q-.52.16-.22.46l.07.15ZM329,105.19H311v13.12h18Z"/><path class="cls-1" d="M394.8,103.8a3.34,3.34,0,0,1-.3,1.31,5,5,0,0,1-.67,1.16l-24.21,28.25h23.76a1.35,1.35,0,0,1,1,.42,1.45,1.45,0,0,1,.41,1v9.18a1.45,1.45,0,0,1-.41,1,1.35,1.35,0,0,1-1,.42h-37q-1.42,0-1.42-1.47v-9.65a4.63,4.63,0,0,1,.89-2.55l24.73-28.25H356.81a1.34,1.34,0,0,1-1-.42,1.44,1.44,0,0,1-.41-1V94.07a1.44,1.44,0,0,1,.41-1,1.34,1.34,0,0,1,1-.42h36.58a1.35,1.35,0,0,1,1,.42,1.45,1.45,0,0,1,.41,1Z"/><path class="cls-1" d="M441.65,92.61a8.06,8.06,0,0,1,3.39.73,9,9,0,0,1,2.76,1.93,9.39,9.39,0,0,1,1.86,2.86,8.88,8.88,0,0,1,.71,3.51v43.53a1.44,1.44,0,0,1-.41,1,1.34,1.34,0,0,1-1,.42H438.6a1.34,1.34,0,0,1-1-.42,1.44,1.44,0,0,1-.41-1V131.35a1.53,1.53,0,0,0-.37-1,1.23,1.23,0,0,0-1-.42H421.09a1.34,1.34,0,0,0-1,.42,1.44,1.44,0,0,0-.41,1v13.81a1.27,1.27,0,0,1-1.42,1.47H408q-1.42,0-1.42-1.47V101.64a9.28,9.28,0,0,1,.67-3.51,8.5,8.5,0,0,1,1.86-2.86,9.46,9.46,0,0,1,2.79-1.93,8.05,8.05,0,0,1,3.39-.73Zm-4.47,25.7V104.72H419.68v13.58Z"/><path class="cls-1" d="M505.46,93a1.45,1.45,0,0,1,.41,1V137.6a8.87,8.87,0,0,1-.71,3.51A9.87,9.87,0,0,1,503.3,144a8.2,8.2,0,0,1-2.76,1.93,8.43,8.43,0,0,1-3.39.69H470.78a8.43,8.43,0,0,1-3.39-.69A8.56,8.56,0,0,1,464.6,144a8.89,8.89,0,0,1-1.86-2.89,9.27,9.27,0,0,1-.67-3.51V94.07q0-1.47,1.42-1.47h10.28a1.27,1.27,0,0,1,1.42,1.47v38a1.31,1.31,0,0,0,.41,1,1.4,1.4,0,0,0,1,.39h14.75a1.28,1.28,0,0,0,1-.39,1.38,1.38,0,0,0,.37-1v-38a1.44,1.44,0,0,1,.41-1,1.34,1.34,0,0,1,1-.42h10.35A1.35,1.35,0,0,1,505.46,93Z"/><path class="cls-1" d="M557.34,118.46a1.63,1.63,0,0,0-.33,1.16,1.62,1.62,0,0,0,.41,1.08l3.13,3.86a4.63,4.63,0,0,1,.89,2.55v10.5a8.87,8.87,0,0,1-.71,3.51,9.85,9.85,0,0,1-1.86,2.89,8.2,8.2,0,0,1-2.76,1.93,8.43,8.43,0,0,1-3.39.69H519q-1.42,0-1.42-1.47V94.07A1.27,1.27,0,0,1,519,92.61h33.67a8.06,8.06,0,0,1,3.39.73,9,9,0,0,1,2.76,1.93,9.38,9.38,0,0,1,1.86,2.86,8.88,8.88,0,0,1,.71,3.51v10a4.63,4.63,0,0,1-.89,2.55Zm-7.82-14.12h-20V114h20Zm0,19.91h-20v10.57h20Z"/><path class="cls-1" d="M585.87,105.57V114c0,.21.12.31.37.31h21.23a1.35,1.35,0,0,1,1,.42,1.45,1.45,0,0,1,.41,1v7.72a1.27,1.27,0,0,1-1.42,1.47H586.24c-.25,0-.37.13-.37.39v8.33c0,.26.12.39.37.39h25a1.35,1.35,0,0,1,1,.42,1.45,1.45,0,0,1,.41,1v9.65a1.44,1.44,0,0,1-.41,1,1.34,1.34,0,0,1-1,.42H581.47a8.43,8.43,0,0,1-3.39-.69,8.57,8.57,0,0,1-2.79-1.93,8.93,8.93,0,0,1-1.86-2.89,9.27,9.27,0,0,1-.67-3.51v-36a9.28,9.28,0,0,1,.67-3.51,8.52,8.52,0,0,1,1.86-2.86,9.47,9.47,0,0,1,2.79-1.93,8.06,8.06,0,0,1,3.39-.73H611.2a1.35,1.35,0,0,1,1,.42,1.45,1.45,0,0,1,.41,1v9.72a1.32,1.32,0,0,1-.41,1,1.41,1.41,0,0,1-1,.39h-25C586,105.19,585.87,105.32,585.87,105.57Z"/><path class="cls-1" d="M669.15,145.39a.84.84,0,0,1,.07.89.9.9,0,0,1-.82.35H656.56a2.35,2.35,0,0,1-1.19-.35,2.31,2.31,0,0,1-.89-.89l-7.9-14.66a.53.53,0,0,0-.52-.31h-8.86c-.25,0-.37.13-.37.39v14.35a1.27,1.27,0,0,1-1.42,1.47H625.13q-1.42,0-1.42-1.47V94.07q0-1.47,1.42-1.47h33.67a8.06,8.06,0,0,1,3.39.73,9,9,0,0,1,2.76,1.93,9.38,9.38,0,0,1,1.86,2.86,8.86,8.86,0,0,1,.71,3.51v20.3a8.89,8.89,0,0,1-1.68,5.29,8.32,8.32,0,0,1-4.28,3.2l-.22.08q-.52.16-.22.46l.07.15Zm-14.82-40.21h-18v13.12h18Z"/><path class="cls-1" d="M693.36,105.57V114c0,.21.12.31.37.31H715a1.35,1.35,0,0,1,1,.42,1.45,1.45,0,0,1,.41,1v7.72a1.27,1.27,0,0,1-1.42,1.47H693.73c-.25,0-.37.13-.37.39v8.33c0,.26.12.39.37.39h25a1.35,1.35,0,0,1,1,.42,1.45,1.45,0,0,1,.41,1v9.65a1.44,1.44,0,0,1-.41,1,1.34,1.34,0,0,1-1,.42H689a8.43,8.43,0,0,1-3.39-.69,8.57,8.57,0,0,1-2.79-1.93,8.93,8.93,0,0,1-1.86-2.89,9.27,9.27,0,0,1-.67-3.51v-36a9.28,9.28,0,0,1,.67-3.51,8.52,8.52,0,0,1,1.86-2.86,9.47,9.47,0,0,1,2.79-1.93,8.06,8.06,0,0,1,3.39-.73h29.72a1.35,1.35,0,0,1,1,.42,1.45,1.45,0,0,1,.41,1v9.72a1.32,1.32,0,0,1-.41,1,1.41,1.41,0,0,1-1,.39h-25C693.48,105.19,693.36,105.32,693.36,105.57Z"/><path class="cls-1" d="M35.23,185.22a8.06,8.06,0,0,1,3.39.73,9,9,0,0,1,2.76,1.93,9.38,9.38,0,0,1,1.86,2.86,8.88,8.88,0,0,1,.71,3.51v36a8.87,8.87,0,0,1-.71,3.51,9.85,9.85,0,0,1-1.86,2.89,8.2,8.2,0,0,1-2.76,1.93,8.43,8.43,0,0,1-3.39.69H1.56q-1.42,0-1.42-1.47V186.68a1.27,1.27,0,0,1,1.42-1.47Zm-22,40.9H30.76V198.33H13.26Z"/><path class="cls-1" d="M68.53,198.18v8.41c0,.21.12.31.37.31H90.13a1.35,1.35,0,0,1,1,.42,1.45,1.45,0,0,1,.41,1v7.72a1.27,1.27,0,0,1-1.42,1.47H68.9c-.25,0-.37.13-.37.39v8.33c0,.26.12.39.37.39h25a1.35,1.35,0,0,1,1,.42,1.45,1.45,0,0,1,.41,1v9.65a1.44,1.44,0,0,1-.41,1,1.34,1.34,0,0,1-1,.42H64.14a8.43,8.43,0,0,1-3.39-.69A8.57,8.57,0,0,1,58,236.61a8.93,8.93,0,0,1-1.86-2.89,9.27,9.27,0,0,1-.67-3.51v-36a9.28,9.28,0,0,1,.67-3.51A8.52,8.52,0,0,1,58,187.88a9.47,9.47,0,0,1,2.79-1.93,8.06,8.06,0,0,1,3.39-.73H93.86a1.35,1.35,0,0,1,1,.42,1.45,1.45,0,0,1,.41,1v9.72a1.32,1.32,0,0,1-.41,1,1.41,1.41,0,0,1-1,.39h-25C68.66,197.79,68.53,197.92,68.53,198.18Z"/><path class="cls-1" d="M120.23,237.77q0,1.47-1.42,1.47H108.53q-1.42,0-1.42-1.47V186.68a1.27,1.27,0,0,1,1.42-1.47h10.28q1.42,0,1.42,1.47Z"/><path class="cls-1" d="M170.4,185.95a9,9,0,0,1,2.76,1.93,9.38,9.38,0,0,1,1.86,2.86,8.88,8.88,0,0,1,.71,3.51v43.53a1.44,1.44,0,0,1-.41,1,1.34,1.34,0,0,1-1,.42H164a1.23,1.23,0,0,1-1-.42,1.52,1.52,0,0,1-.37-1v-38a1.32,1.32,0,0,0-.41-1,1.42,1.42,0,0,0-1-.39H146.45a1.41,1.41,0,0,0-1,.39,1.32,1.32,0,0,0-.41,1v38q0,1.47-1.42,1.47H133.34q-1.42,0-1.42-1.47V186.68a1.27,1.27,0,0,1,1.42-1.47H167A8.06,8.06,0,0,1,170.4,185.95Z"/><path class="cls-1" d="M200.38,198.18v8.41c0,.21.12.31.37.31H222a1.35,1.35,0,0,1,1,.42,1.45,1.45,0,0,1,.41,1v7.72a1.27,1.27,0,0,1-1.42,1.47H200.75c-.25,0-.37.13-.37.39v8.33c0,.26.12.39.37.39h25a1.35,1.35,0,0,1,1,.42,1.45,1.45,0,0,1,.41,1v9.65a1.44,1.44,0,0,1-.41,1,1.34,1.34,0,0,1-1,.42H196a8.43,8.43,0,0,1-3.39-.69,8.57,8.57,0,0,1-2.79-1.93,8.93,8.93,0,0,1-1.86-2.89,9.27,9.27,0,0,1-.67-3.51v-36a9.28,9.28,0,0,1,.67-3.51,8.52,8.52,0,0,1,1.86-2.86,9.47,9.47,0,0,1,2.79-1.93,8.06,8.06,0,0,1,3.39-.73h29.72a1.35,1.35,0,0,1,1,.42,1.45,1.45,0,0,1,.41,1v9.72a1.32,1.32,0,0,1-.41,1,1.41,1.41,0,0,1-1,.39h-25C200.5,197.79,200.38,197.92,200.38,198.18Z"/><path class="cls-1" d="M298.6,207.44a8.21,8.21,0,0,1,2.76,1.93,10,10,0,0,1,1.86,2.86,8.59,8.59,0,0,1,.71,3.47v14.51a8.86,8.86,0,0,1-.71,3.51,9.85,9.85,0,0,1-1.86,2.89,8.19,8.19,0,0,1-2.76,1.93,8.43,8.43,0,0,1-3.39.69H265.48q-1.42,0-1.42-1.47v-9.34a1.44,1.44,0,0,1,.41-1,1.34,1.34,0,0,1,1-.42h25.33a1.41,1.41,0,0,0,1-.39,1.32,1.32,0,0,0,.41-1v-6.41a1.45,1.45,0,0,0-.41-1,1.35,1.35,0,0,0-1-.42h-18a8.42,8.42,0,0,1-3.39-.69,8.57,8.57,0,0,1-2.79-1.93,9,9,0,0,1-2.53-6.33V194.24a9.28,9.28,0,0,1,.67-3.51,8.52,8.52,0,0,1,1.86-2.86,9.47,9.47,0,0,1,2.79-1.93,8.06,8.06,0,0,1,3.39-.73h28.08a1.27,1.27,0,0,1,1.42,1.47v9.49a1.32,1.32,0,0,1-.41,1,1.41,1.41,0,0,1-1,.39H277.1a1.23,1.23,0,0,0-1,.42,1.52,1.52,0,0,0-.37,1v6.25a1.52,1.52,0,0,0,.37,1,1.22,1.22,0,0,0,1,.42h18.1A8.43,8.43,0,0,1,298.6,207.44Z"/><path class="cls-1" d="M352.12,196.87a1.44,1.44,0,0,1-.41,1,1.34,1.34,0,0,1-1,.42H340.12a1.41,1.41,0,0,0-1,.39,1.32,1.32,0,0,0-.41,1v38a1.52,1.52,0,0,1-.37,1,1.23,1.23,0,0,1-1,.42H327a1.34,1.34,0,0,1-1-.42,1.44,1.44,0,0,1-.41-1v-38a1.39,1.39,0,0,0-.37-1,1.29,1.29,0,0,0-1-.39H313.68a1.34,1.34,0,0,1-1-.42,1.44,1.44,0,0,1-.41-1V186.68q0-1.47,1.42-1.47h37a1.35,1.35,0,0,1,1,.42,1.45,1.45,0,0,1,.41,1Z"/><path class="cls-1" d="M395.69,185.22a8.06,8.06,0,0,1,3.39.73,9,9,0,0,1,2.76,1.93,9.39,9.39,0,0,1,1.86,2.86,8.88,8.88,0,0,1,.71,3.51v43.53a1.44,1.44,0,0,1-.41,1,1.34,1.34,0,0,1-1,.42H392.64a1.34,1.34,0,0,1-1-.42,1.44,1.44,0,0,1-.41-1V224a1.53,1.53,0,0,0-.37-1,1.23,1.23,0,0,0-1-.42H375.13a1.34,1.34,0,0,0-1,.42,1.44,1.44,0,0,0-.41,1v13.81a1.27,1.27,0,0,1-1.42,1.47H362q-1.42,0-1.42-1.47V194.24a9.28,9.28,0,0,1,.67-3.51,8.5,8.5,0,0,1,1.86-2.86,9.46,9.46,0,0,1,2.79-1.93,8.05,8.05,0,0,1,3.39-.73Zm-4.47,25.7V197.33H373.72v13.58Z"/><path class="cls-1" d="M451.26,185.22a8.06,8.06,0,0,1,3.39.73,9,9,0,0,1,2.76,1.93,9.38,9.38,0,0,1,1.86,2.86,8.88,8.88,0,0,1,.71,3.51v36a8.87,8.87,0,0,1-.71,3.51,9.85,9.85,0,0,1-1.86,2.89,8.2,8.2,0,0,1-2.76,1.93,8.43,8.43,0,0,1-3.39.69H417.59q-1.42,0-1.42-1.47V186.68a1.27,1.27,0,0,1,1.42-1.47Zm-22,40.9h17.51V198.33H429.29Z"/><path class="cls-1" d="M508.55,196.87a1.44,1.44,0,0,1-.41,1,1.34,1.34,0,0,1-1,.42H496.55a1.41,1.41,0,0,0-1,.39,1.32,1.32,0,0,0-.41,1v38a1.52,1.52,0,0,1-.37,1,1.23,1.23,0,0,1-1,.42H483.44a1.34,1.34,0,0,1-1-.42,1.44,1.44,0,0,1-.41-1v-38a1.39,1.39,0,0,0-.37-1,1.29,1.29,0,0,0-1-.39H470.11a1.34,1.34,0,0,1-1-.42,1.44,1.44,0,0,1-.41-1V186.68q0-1.47,1.42-1.47h37a1.35,1.35,0,0,1,1,.42,1.45,1.45,0,0,1,.41,1Z"/><path class="cls-1" d="M530.45,237.77a1.27,1.27,0,0,1-1.42,1.47H518.75q-1.42,0-1.42-1.47V227.12q0-1.46,1.42-1.47H529a1.27,1.27,0,0,1,1.42,1.47ZM529,220.33a1.44,1.44,0,0,1-.41,1,1.34,1.34,0,0,1-1,.42h-7.45a1.34,1.34,0,0,1-1-.42,1.44,1.44,0,0,1-.41-1l-1.34-33.65a1.22,1.22,0,0,1,.33-1,1.34,1.34,0,0,1,1-.42H529a1.35,1.35,0,0,1,1,.42,1.22,1.22,0,0,1,.34,1Z"/></g></g></svg>